<svg xmlns="http://www.w3.org/2000/svg" viewBox="0 0 5000 5000" fill="#b3b3b3" xmlns:v="https://vecta.io/nano"><path d="m758 4279 1-10 103 7-1 10z"/><path d="m802 4329 7-103 10 1-7 103zM1098 71l-63 50-12-79Zm-56 34 38-31-46-18ZM2848 2951l-2-80 80-2 2 80Zm9-70 1 59 59-1-1-59ZM996 1814l-4-22 10-2 2 13 17-3 3 17 17-3 3 17 12-3 2 10-22 4-3-17-17 3-3-17-17 3zM3265 4876l103-4v10l-103 4z"/><path d="M3310 4827h10l4 103h-10zm-2044 0l9 79-73-32zm-2 65l-5-49-40 29zm1942-3108a40 40 0 1 1 36 44 40 40 0 0 1-36-44zm69 6a30 30 0 1 0-32 27 30 30 0 0 0 32-27zM2906 243l76-27 27 75-75 27zm69-14l-55 20 20 56 55-21zm-354-120l-20-11 4-8 12 6 8-15 15 8 8-16 15 9 6-11 8 4-10 20-15-9-8 16-15-8-8 15zm-245 31l109-63 6 11-109 63z"/><path d="M2397 62l11-6 63 110-11 6zm644 4499l-47 64-65-47 47-64zm-50 49l35-47-48-35-34 48zM993 2812a40 40 0 1 1 24 51 40 40 0 0 1-24-51zm65 24a30 30 0 1 0-38 17 30 30 0 0 0 38-17zm2239 1979l-87-14 56-69zm-69-21l54 8-19-50zM2123 2210l21 8-3 9-12-5-5 17-17-6-5 17-17-6-4 12-9-3 7-21 17 6 5-17 17 6 5-17zm50 1180l98-32 3 10-98 32z"/><path d="m2203 3332 10-3 32 98-10 3zM4675 131l-44 67-67-43 44-67Zm-47 53 32-49-49-32-32 49ZM262 3698a40 40 0 1 1-3-57 40 40 0 0 1 3 57Zm-52-47a30 30 0 1 0 42-2 30 30 0 0 0-42 2ZM4878 677l50 63-79 12Zm33 56-31-38-17 46ZM4626 470l73-33 33 73-73 33Zm68-19-54 24 24 54 54-24ZM4227 3490l-70 38 3-80Zm-61 23 44-23-42-27ZM4291 3291l61-84 8 6-60 84z"/><path d="M4269 3223l6-8 83 61-6 8zm-46 143l11-20 8 5-6 11 16 8-9 15 16 8-9 16 11 5-4 9-20-10 9-16-16-8 9-15-16-8zM2595 1151a40 40 0 1 1-34 45 40 40 0 0 1 34-45zm10 69a30 30 0 1 0-34-25 30 30 0 0 0 34 25zM1363 3202l2-80 68 42zm11-65l-2 50 44-23zm923 694l6-8 84 60-6 8z"/><path d="m2307 3896 61-83 8 6-61 83zM3014 3544l20-12 5 8-11 7 9 15-15 9 10 14-15 10 7 10-8 5-13-19 16-9-10-14 15-9-10-15zM2445 1098l72-35 35 72-72 35Zm67-21-53 26 26 53 53-26ZM770 68a40 40 0 1 1-42 38 40 40 0 0 1 42-38Zm-4 70a30 30 0 1 0-28-31 30 30 0 0 0 28 31ZM384 2400l11 79-79 11-11-79Zm-1 70-8-58-58 8 8 58ZM97 3105l-70-38 68-42Zm-53-38 44 23-2-50ZM2271 4297l8 21-9 3-4-12-17 7-6-16-16 6-6-16-12 4-3-8 21-9 6 17 16-7 6 17 16-7zM2407 340a40 40 0 1 1-18 54 40 40 0 0 1 18-54Zm31 62a30 30 0 1 0-40-13 30 30 0 0 0 40 13ZM4813 815l5-9 89 52-5 8z"/><path d="M4830 878l52-89 8 5-51 89zM326 2951l-71 38-37-71 70-37zm-66 24l52-28-28-52-52 28zm1465-937l-66-46 73-34zm-48-44l40 28 5-49zM3401 83l6-8 85 57-6 8z"/><path d="M3413 147l58-86 8 6-57 85zm-365-68l1-22 10 1-1 12 18 1-1 17h17l-1 18h13v10l-23-1 1-17-17-1 1-17-18-1zm-38 249a40 40 0 1 1-16 54 40 40 0 0 1 16-54zm33 62a30 30 0 1 0-40-13 30 30 0 0 0 40 13zm913 2554l85-58 6 8-86 58z"/><path d="m3968 2880 8-6 58 86-8 5zM3862 2719l23 8-4 9-12-4-6 18-17-6-6 17-18-6-3 13-10-3 7-22 18 6 5-18 18 6 5-18zM959 2237l41-69 69 41-41 69Zm45-54-30 50 50 30 30-50ZM3834 3684a40 40 0 1 1-55 13 40 40 0 0 1 55-13Zm-36 59a30 30 0 1 0-10-40 30 30 0 0 0 10 40ZM4970 1466l30-26v-12l-24 21-10-51 34 12v-10l-46-16 16 82zM0 1400v10l15 5-15 13v12l33-28-33-12zM1459 3545l10 20-8 4-6-11-15 8-8-16-16 9-7-16-12 6-4-9 20-10 8 16 15-9 8 16 15-8zM3394 1044l-66 52-51-66 65-51Zm-64 36 48-38-37-48-49 38ZM4843 4616a40 40 0 1 1 23-52 40 40 0 0 1-23 52Zm-25-65a30 30 0 1 0 38 17 30 30 0 0 0-38-17ZM2454 1379l44 67-80 5Zm28 59-27-41-22 44ZM1160 1673l33-98 10 4-34 97z"/><path d="M1131 1614l4-9 97 33-3 10zm-52 71l80-7 7 80-80 7zm70 5l-58 5 5 58 58-5zm603-1160l23-101 10 3-23 100z"/><path d="M1717 474l2-9 100 23-2 9zm2739 46l-2 80-68-42zm-10 64l1-49-43 24zm240 296l-22 3-1-9 12-2-3-17 18-3-3-17 17-2-2-13 9-1 4 22-17 2 3 17-18 3 3 17zM1861 4332a40 40 0 1 1 27 50 40 40 0 0 1-27-50zm67 21a30 30 0 1 0-37 19 30 30 0 0 0 37-19zm209 297a40 40 0 1 1-52-22 40 40 0 0 1 52 22zm-65 26a30 30 0 1 0 17-38 30 30 0 0 0-16 38zm108-232l10-4 40 103-11 4z"/><path d="M2151 4508l103-40 4 11-103 39zm49-114l-98 36-36-98 98-35zm-90 18l72-26-26-72-72 27zM403 1257l-1-23h9l1 13 17-2 1 18 17-1 1 17 13-1v10l-22 1-1-17-17 1-1-18-17 2zm4372 3535l-55 60-24-78zm-51 42l34-37-49-11zM3205 3463l80-3-38 70zm65 6l-49 2 26 42zM207 4490l-24 77-76-24 23-76zm-31 64l17-57-56-17-17 56zm659-1273l18 14-6 7-10-8-11 14-13-11-11 14-14-11-7 10-8-5 14-18 13 11 11-14 14 11 10-14zM390 2168a40 40 0 1 1 52-22 40 40 0 0 1-52 22zm26-65a30 30 0 1 0 16 39 30 30 0 0 0-16-39zM658 645l66-79 8 7-66 78z"/><path d="M652 580l7-7 79 66-7 7zm2673 2694a40 40 0 1 1 16 54 40 40 0 0 1-16-54zm61 33a30 30 0 1 0-40 12 30 30 0 0 0 40-12zM1284 955l-20 78-57-56zm-25 61l12-48-47 14zm454-762l18-12 6 8-11 7 11 14-15 10 10 14-14 10 7 10-7 6-14-19 15-9-10-15 14-9-10-15zm2744 2215l3-9 99 28-3 10z"/><path d="M4489 2527l28-99 10 3-28 99zm272-849l37 70-71 38-37-71zm23 66l-28-52-52 28 28 52zM2858 2784l3-10 98 32-3 9z"/><path d="M2889 2836l31-98 10 3-32 98zm632-971l-20 10-4-9 11-5-8-16 16-7-8-16 15-8-6-11 9-4 10 20-16 7 9 16-16 7 8 16zm-886 238l11 80-79 11-11-80zm-1 71l-8-59-58 9 8 58zm823 863l19-78 58 56zm24-61l-12 48 48-14zM997 3454a40 40 0 1 1 8-56 40 40 0 0 1-8 56zm-42-56a30 30 0 1 0 42 6 30 30 0 0 0-42-6zm3628-226a40 40 0 1 1 24 51 40 40 0 0 1-24-51zm65 23a30 30 0 1 0-37 18 30 30 0 0 0 37-18zm-2963 999l-14-19 7-6 9 10 14-12 11 15 15-12 11 15 10-9 7 8-18 15-12-15-14 12-12-14-14 12zm3037 363l-64-48 74-32zm-46-46l39 29 6-49zm-2734-312l-76 25-25-76 76-25zm-69 11l56-18-18-56-56 19zM3163 95l7-7 77 69-7 7z"/><path d="m3166 161 69-76 8 6-69 77zM389 4671l-77 23-23-76 76-24Zm-70 10 56-17-17-56-56 17ZM1450 1893h10l4 103h-10z"/><path d="M1405 1942l103-4v10l-103 4zm463 278l30 74-80-11zm16 63l-19-46-30 39zm3084 1038a40 40 0 1 1-50-27 40 40 0 0 1 50 27zm-67 20a30 30 0 1 0 20-37 30 30 0 0 0-20 37zM795 4809l1 23h-10v-13l-18 1v-17l-18 1-1-17h-12l-1-9 23-2v18l18-1v17l18-1zm119-408l-76-26 26-76 76 26zm-63-33l56 19 19-55-55-20zM449 1560l58-85 8 5-57 86z"/><path d="M437 1495l6-8 85 58-5 8zm358-595l-76-27 62-51zm-58-30l46 17-8-49zm-159 765l-5 22-9-2 3-12-17-3 3-17-17-3 4-17-13-3 2-9 22 4-4 17 17 3-3 17 17 3zm284 55a67 67 0 1 1-46 83 67 67 0 0 1 46-83zm33 112a50 50 0 1 0-62-34 50 50 0 0 0 62 34zM597 4352l74-71 7 7-74 71z"/><path d="m598 4287 7-7 72 74-7 7zM4930 2126a40 40 0 1 1-53 19 40 40 0 0 1 53-19Zm-29 63a30 30 0 1 0-15-40 30 30 0 0 0 15 40ZM938 4513l62-50 51 62-63 50Zm61-35-46 37 37 45 46-37ZM219 406l-41 68-39-70Zm-41 50 26-42-50-1ZM6 668l18-18 7 7-10 10 14 14-13 14 14 13-14 14 10 10-7 8-18-18 14-14-15-13 14-14-14-13zM2427 3544l85-62 6 8-85 62z"/><path d="M2437 3478l8-6 62 85-8 6zm88 305l-27-12 5-12 15 7 9-21 21 10 9-21 21 9 7-15 11 5-11 27-21-10-9 22-21-10-9 21zm408-323a40 40 0 1 1 31 48 40 40 0 0 1-31-48zm68 15a30 30 0 1 0-35 23 30 30 0 0 0 35-23zm-236 1169l79 11-11 79-79-11zm67 20l-58-8-8 58 58 8zm1811-1811l47-65 32 73zm45-47l-29 40 49 5zM3320 1165l60-73 73 59-59 74zm61-55l-43 53 54 44 43-54zm-367-325a40 40 0 1 1 56-8 40 40 0 0 1-56 8zm42-55a30 30 0 1 0 6 41 30 30 0 0 0-6-41zm226 1842l-23-2 1-10 13 2 1-18 18 2 1-17 17 1 1-12h10l-2 23-17-2-2 17-17-1-1 17zm-113-223l102-96 10 11-102 95z"/><path d="M3173 2259l10-9 96 102-11 10zm1602 1917l2 80-70-39zm-8 65v-50l-43 26zM355 4548l-92 42-42-91 91-43zm-85 24l67-31-31-67-67 31zm876-300a40 40 0 1 1 35 45 40 40 0 0 1-35-45zm69 9a30 30 0 1 0-33 25 30 30 0 0 0 33-25zm3207 15l100-25 3 9-100 25z"/><path d="M4457 4240l9-3 25 100-9 3zm-33-93l62-58 19 83zm56-40l-38 36 50 15zM945 98l-23 3-1-10 13-1-3-18 18-1-3-18 18-2-2-12 9-2 4 23-18 2 3 17-18 2 3 17zM481 4531a40 40 0 1 1-13-55 40 40 0 0 1 13 55zm-59-36a30 30 0 1 0 40-10 30 30 0 0 0-40 10zm2723-220l-78 18 24-77zm-65 6l49-11-34-36zM1768 1403l-22 3-2-10 13-1-3-17 18-3-3-17 17-2-2-13 10-1 3 22-17 2 3 18-18 2 3 17zm375 1030l9-5 42 95-9 4z"/><path d="M2120 2494l95-42 4 9-95 42zM446 2072l-60-52 52-61 61 53zm-45-53l44 38 39-44-44-39zm-63-144l5-22 9 2-2 12 17 3-3 17 17 3-3 17 12 2-1 10-23-4 4-17-18-3 4-17-18-3zm87-51l-68-112 113-68 68 113zm-44-106l50 82 83-49-50-83zM4049 274l73-33-7 79zm62-19l-44 21 40 28zm-262 1489l6-103 10 1-6 103z"/><path d="M3805 1695v-10l103 5v10zM2028 2235a40 40 0 1 1-51-25 40 40 0 0 1 51 25Zm-66 23a30 30 0 1 0 19-38 30 30 0 0 0-19 38ZM2379 4478a48 48 0 1 1 6-68 48 48 0 0 1-6 68Zm-54-64a36 36 0 1 0 50 4 36 36 0 0 0-50-4ZM4032 1705l28 75-74 28-29-74Zm15 69-21-55-55 21 21 55ZM3038 4793l115 18-73 91Zm91 27-71-11 26 67ZM444 2771l-19 12-5-8 11-7-10-14 15-10-10-14 14-10-7-10 8-5 13 18-15 10 10 14-15 10 10 14zM157 1097l77-69 6 7-76 69z"/><path d="m161 1030 7-6 69 76-8 7zM4912 477l8-6 64 81-8 6z"/><path d="M4904 542l82-64 6 8-81 63zM875 4735l43 73h-85zm26 64l-26-46-26 46zm413-1276a62 62 0 1 1-87 11 62 62 0 0 1 87-11zm-67 86a46 46 0 1 0-8-65 46 46 0 0 0 8 65zm795-279l35-72 72 35-35 72zm40-58l-26 53 53 26 26-53zm-133-31l10-25 11 4-6 14 20 7-7 20 20 7-8 19 14 5-3 11-26-9 8-20-20-6 7-20-20-7zm1036-274l-26 76-52-60zm-29 59l16-47-49 9zm-8 92l13 19-8 5-7-11-15 10-9-14-15 10-9-15-10 7-6-8 18-12 10 14 14-10 10 15 14-10zm-196-164a46 46 0 1 1 59-28 46 46 0 0 1-59 28zm26-76a34 34 0 1 0 22 44 34 34 0 0 0-22-44zm-1091 372l-74-98 98-75 74 99zm-51-95l54 72 73-54-55-73zm-165-36l31-132 12 2-30 133z"/><path d="m1425 3046 3-13 133 31-3 12zM3995 389l8-22 9 4-4 12 16 5-6 17 17 5-6 16 12 4-3 9-21-7 6-16-17-5 6-17-17-5zM1108 1859l7-11 110 77-7 11z"/><path d="M1121 1935l76-110 11 8-76 110zm-195 44l-11-94 94-12 11 94zm3-83l8 69 69-9-8-69zm191-1372l-82-56 90-42zm-60-55l50 36 6-61zm2481 2354a40 40 0 1 1-53 19 40 40 0 0 1 53-19zm-31 63a30 30 0 1 0-13-40 30 30 0 0 0 13 40zM798 1826l-20 78-77-20 19-77zm-27 65l14-57-57-14-14 57zm725 970l27 75-78-14zm14 64l-17-46-32 37zm189-141a55 55 0 1 1 71 33 55 55 0 0 1-71-33zm91-33a41 41 0 1 0-25 53 41 41 0 0 0 25-53zm-138 152l28-28 12 12-16 16 22 22-22 21 22 22-22 22 16 15-12 13-28-28 22-22-22-22 22-21-22-22zm-746-27l7-8 80 77-7 8z"/><path d="M907 2947l77-80 8 7-77 80zm2923 423l60-53 52 61-60 52zm59-38l-44 39 38 44 45-38zm141 205l22 5-2 9-12-3-3 18-18-4-3 17-17-3-2 12-9-2 3-22 18 4 3-17 17 3 3-17zM3070 194a48 48 0 1 1-15 67 48 48 0 0 1 15-67zm45 71a36 36 0 1 0-49-11 36 36 0 0 0 49 11zM678 4166l78 20-56 57zm61 25l-48-12 14 47zm2779-1791l103-4v10l-103 4z"/><path d="M3563 2352h10l4 103h-10zm-202 347l-35-72 72-35 35 72zm-21-67l26 53 53-26-26-53zm113-174h-91l45-79zm-74-10h56l-28-49zm372 2299l23 4-2 9-12-2-3 17-17-2-2 17-17-3-2 13-9-1 2-22 18 2 2-17 17 3 2-18zm-238-143l9-5 54 87-8 6z"/><path d="M3498 4669l88-54 5 8-87 55zm-36 127a52 52 0 1 1-69 25 52 52 0 0 1 69-25zm-38 82a39 39 0 1 0-19-51 39 39 0 0 0 19 51zM4763 158l1-10 103 9-1 10z"/><path d="M4806 209l9-103 10 1-9 103zM23 43A42 42 0 0 0 0 10v12a31 31 0 0 1 12 22A31 31 0 0 1 0 72v12a42 42 0 0 0 23-41zm4961 35a31 31 0 1 1 16-56V10a42 42 0 1 0-15 78 41 41 0 0 0 15-4V72a31 31 0 0 1-16 6zM883 1905l8 102-103 7-7-102zm-7 89l-5-75-75 6 5 75zm-15 181l64-65 24 88zm59-45l-40 39 55 15zm1666-154l-23-11 5-10 13 7 9-18 17 9 8-17 18 9 6-13 10 5-11 22-18-9-8 18-18-9-8 17zm1749 1811l-80-10 48-64zm-63-17l49 6-20-46zM1346 29a40 40 0 0 0 73-29h-10a30 30 0 1 1-58 0h-10a40 40 0 0 0 5 29zm13 4945a40 40 0 0 0-18 26h10a30 30 0 0 1 57 0h11a40 40 0 0 0-60-26zm647-4438l17-14 6 7-10 8 12 13-14 11 12 14-14 11 8 9-7 6-15-17 14-11-11-13 13-11-11-13zm-232 177l-28-103 104-28 28 104zm-10-93l20 76 76-20-20-76zm1956 3817l13-102 10 1-13 102z"/><path d="M3679 4386l1-10 102 12-1 10zM1056 865a40 40 0 1 1-50-27 40 40 0 0 1 50 27zm-66 20a30 30 0 1 0 19-37 30 30 0 0 0-19 37zm-3-106l-23-3 1-9 13 1 1-17 18 2 1-18 17 2 1-13 10 1-2 22-17-2-2 18-17-2-1 18zM197 2158l5-9 87 55-5 8z"/><path d="M212 2222l55-88 8 6-54 87zM2672 988l-76-26 26-76 76 26zm-62-33l55 19 20-55-56-19zm1155 1013l-68-42 71-38zm-50-42l42 26 2-49zM558 972a40 40 0 1 1 44-35 40 40 0 0 1-44 35zm8-69a30 30 0 1 0 26 33 30 30 0 0 0-26-33zm319 73l-67 45-44-66 66-45zm-64 30l49-33-33-48-49 32zm11-344l57-57 21 78zm52-40l-35 35 48 13zm1645 632l16 19-8 6-9-10-13 12-12-14-14 12-12-14-10 9-7-7 18-16 12 14 14-12 12 14 13-13zM584 1556l34-129 13 3-35 129z"/><path d="M547 1482l3-13 130 35-3 12zM101 242L99 85l156-3 3 157zm19-137l2 115 115-2-2-115zm208 305l-89-18 59-68zm-70-24l55 11-18-54zm2853 2801a40 40 0 1 1 38-42 40 40 0 0 1-38 42zm-4-70a30 30 0 1 0 31 28 30 30 0 0 0-31-28zm-78 258l85-160 16 9-85 160z"/><path d="M2996 3265l9-16 159 85-8 16zm259 119l-24 2-1-9 14-2-3-18 19-2-3-19 18-2-1-13 10-1 3 23-19 2 3 19-19 2 3 18zM1188 1538l-22-1v-10l13 1 1-18 17 2 1-18 17 1 1-12h9l-1 22-17-1-1 18-17-1-1 17zm43-170l6-120 101 65zm18-97l-4 74 66-33zm3066-128a40 40 0 1 1-39 40 40 40 0 0 1 39-40zm1 69a30 30 0 1 0-30-29 30 30 0 0 0 30 29zm-1164-130l50-62 62 50-50 62zm52-47l-37 45 46 37 37-45zM1287 4827l101-29 2 9-101 29z"/><path d="M1319 4768l9-3 29 101-9 2zM1206 835l-62 58-58-62 62-58zm-61 42l45-42-42-46-46 43zm1756 3289a56 56 0 1 1 64-45 56 56 0 0 1-64 45zm17-96a42 42 0 1 0 33 48 42 42 0 0 0-33-48zm959 748l19-77 58 55zm24-60l-12 48 47-14zm-5-157l8-12 121 78-8 12z"/><path d="M3915 4691l79-121 11 7-78 121zm288 134h22v10l-13-1v18l-17-1v18l-18-1v13h-9v-22h17v-17h18v-17zM1705 448l-80-8 9-80 79 9zm-68-17l59 6 6-59-59-6zm-12-282l12-24 10 5-7 14 20 8-10 19 20 9-10 19 14 6-4 10-25-11 9-19-19-8 9-19-19-9zm2756 3216a40 40 0 1 1 54 17 40 40 0 0 1-54-17zm62-32a30 30 0 1 0-13 40 30 30 0 0 0 13-40zM3509 216l59-69 30 87zm56-49l-37 43 55 10zm847 2166l9-4 45 93-9 4z"/><path d="M4391 2396l93-45 4 9-93 45zM2151 183l-19 13-5-8 10-7-10-14 14-10-11-14 15-10-8-11 8-5 13 18-14 10 10 14-14 10 11 14zm64 265l11-80 63 50zm18-63l-7 49 46-19zm-160-206l46 66-65 46-46-66zm31 63l-33-48-49 34 34 48zm295 15a54 54 0 1 1-67-38 54 54 0 0 1 67 38zm-92 25a40 40 0 1 0 29-50 40 40 0 0 0-29 50zm-94-160l7-8 84 79-7 8z"/><path d="M2215 196l79-84 8 7-79 84zm892 4452l-1 22h-9v-13h-17v-18h-17v-17h-12v-10h22l-1 18h18l-1 17 18 1zm1173-801l62-51 51 62-62 51zm61-36l-46 37 37 46 46-37zm5-1253a40 40 0 1 1-53-18 40 40 0 0 1 53 18zm-62 31a30 30 0 1 0 13-40 30 30 0 0 0-13 40zm-261-2l73-108 10 7-72 108z"/><path d="M4007 2505l7-11 108 73-7 10zm392-1185l29-139 106 95zm39-109l-18 86 83-27zm-92-861l-29-88 89-29 28 88zm-13-81l21 65 65-21-21-65zm-1517 995l-65 52-12-82zm-58 35l40-32-48-19zm1572 3092l118-25 2 11-117 25z"/><path d="M4372 4327l12-3 24 117-11 3zM3092 2694l6 35-15 3-3-20-27 6-5-28-27 6-5-27-20 4-3-15 35-7 5 27 27-5 5 27 27-6zM452 4922a40 40 0 1 1 36 43 40 40 0 0 1-36-43zm69 6a30 30 0 1 0-32 27 30 30 0 0 0 32-27zm78-159l3-24 11 1-2 14 19 2-3 18 19 2-3 19 14 2-1 10-24-3 2-18-19-2 3-19-19-2zM237 3074l-61 52-14-79zm-55 35l38-32-46-16zm2926-1227l38-70 70 39-38 70zm42-56l-28 52 51 28 29-51zm-929 2137a40 40 0 1 1-38 42 40 40 0 0 1 38-42zm4 69a30 30 0 1 0-31-28 30 30 0 0 0 31 28zm-62-110l83-106 10 8-83 106z"/><path d="M2153 3838l8-10 105 82-8 10zm1914-2612l-41-69 80-1zm-26-60l26 42 23-43zm-80-163l-22 5-3-9 13-3-5-17 17-4-6-17 17-5-3-12 9-2 6 21-17 5 5 16-17 5 6 17zM2906 106l59 54-53 59-60-53zm44 55l-43-40-40 44 44 39zm-367-3a78 78 0 1 1-97 53 78 78 0 0 1 97-53zm-38 131a58 58 0 1 0-40-72 58 58 0 0 0 40 72zm747 1548l103-2v10l-103 2z"/><path d="M3338 1790h10l2 103h-10zm-971 283l-67-42 70-38zm-50-42l42 27 2-50zm493 2222a40 40 0 1 1 14 55 40 40 0 0 1-14-55zm60 36a30 30 0 1 0-41 10 30 30 0 0 0 41-10zm151 114l76-94 9 8-75 93z"/><path d="m2999 4332 7-9 94 75-8 10zM3276 1481l8 80-79 8-9-80Zm-4 70-6-58-58 6 6 58ZM900 2731l-21-7 3-9 12 4 6-17 16 6 6-16 16 6 4-12 9 2-7 22-17-6-5 17-16-6-6 16zM4055 4445a40 40 0 1 1-19 53 40 40 0 0 1 19-53Zm29 63a30 30 0 1 0-39-14 30 30 0 0 0 39 14ZM2371 2190l153-68 6 14-152 68z"/><path d="M2409 2090l14-7 68 153-14 6zm448-1551l58 55-76 23zm41 51l-36-34-11 48zm-99 153l-70-37 37-71 71 38zm-56-42l52 28 27-52-51-27zm-48-278l-23-3 1-9 13 1 1-17 18 2 1-18 17 2 1-13 10 1-2 22-17-2-2 18-17-2-1 18zm89 54l10-140 141 10-10 140zm27-120l-7 103 103 7 8-103zm-275 191l37-137 13 4-37 137z"/><path d="M2491 470l3-14 137 37-3 13zm2057 1470l49-88 52 86zm49-66l-30 55 62-1zm-3081-114l-12-19 8-5 6 10 15-10 9 15 15-9 9 14 11-7 5 8-19 13-9-15-15 10-9-15-14 10zm97 254a49 49 0 1 1-59-35 49 49 0 0 1 59 35zm-82 21a36 36 0 1 0 26-44 36 36 0 0 0-26 44zm1653-10l-22-6 3-9 12 3 4-17 17 5 4-17 17 5 3-12 9 2-5 22-17-5-4 17-17-5-4 17zm-11 68l59 88-105 7zm38 78l-37-54-28 58zm-312 2355a44 44 0 1 1-61-9 44 44 0 0 1 61 9zm-61 46a33 33 0 1 0 6-46 33 33 0 0 0-6 46zm-299-215l9-8 81 91-8 8z"/><path d="M2535 4435l91-82 8 9-91 82zM1090 2532l-70 37-38-70 71-38zm-66 23l52-28-27-52-52 28zm2716 391l167-57 6 16-168 57z"/><path d="M3790 2846l16-6 57 167-16 6zm65-2709a40 40 0 1 1 55-10 40 40 0 0 1-55 10zm40-57a30 30 0 1 0 7 42 30 30 0 0 0-7-42zm8 253h-36v-15h20v-28h27l-1-27h28l-1-20 15-1 2 36h-28l1 27h-28l1 28zm126 4549l-109 85 25 33h24l-23-29 80-63 63 80-15 12h30l11-9-86-109zM4104 0h-30l-65 51-40-51h-24l60 77 99-77zM254 966l-78-14 51-61zm-62-20l49 9-17-46zm1003 1855l20 12-5 8-11-7-8 16-16-9-8 16-15-9-6 11-8-4 10-20 15 9 9-16 15 9 8-16zm126 151l9-8 78 92-10 8z"/><path d="M1315 3028l91-77 8 9-92 77zm-156-133l-41 118-82-94zm-46 91l25-73-76 15zm2418 1573l-79-13 14-79 79 14zm-67-22l58 10 10-58-57-10zm-164-162a50 50 0 1 1-70-4 50 50 0 0 1 70 4zm-64 58a37 37 0 1 0 3-52 37 37 0 0 0-3 52zm163 301l-20 17-8-8 12-10-15-15 16-14-14-16 16-14-11-11 9-7 18 19-16 14 15 16-16 13 14 16zm-215-144l96 15-15 97-96-16zm81 26l-70-11-12 71 71 11zm322-2892l-1-80 70 39zm8-65l1 50 42-26zm123 42a40 40 0 1 1-40 41 40 40 0 0 1 40-41zm1 70a30 30 0 1 0-30-29 30 30 0 0 0 30 29zm-194-168l25-100 10 3-25 100z"/><path d="M3492 1546l2-9 100 25-2 9zm242 2513l5-9 90 50-5 9z"/><path d="M3752 4123l50-90 9 5-50 90zm-72-332l34 11-5 14-19-6-7 27-27-8-7 27-26-8-5 19-15-4 9-34 27 8 7-27 27 8 7-27zM541 3659h-99v-99h99zm-86-13h73v-73h-73zm1091-236a61 61 0 1 1 83 24 61 61 0 0 1-83-24zm93-51a45 45 0 1 0-18 61 45 45 0 0 0 18-61zm147 49l-84-90 120-27zm-58-82l52 56 22-73zm2108-1243l-24-77 78 18zm-11-65l15 47 33-36zm229 204l93-45 4 9-92 45z"/><path d="M4075 2160l9-5 45 93-9 4zm-149-261l14-32 14 6-8 18 26 11-12 25 26 11-11 26 19 7-6 14-33-13 11-26-26-10 12-26-26-11zm890 1515a40 40 0 1 1 2 57 40 40 0 0 1-2-57zm51 48a30 30 0 1 0-42 1 30 30 0 0 0 42-1zm-220-71l29-74 74 28-28 75zm35-61l-21 55 54 21 22-55zm-79 145l-124 87-13-152zm-110 56l77-53-85-40zm386-1800l77-68 7 8-78 67z"/><path d="M4882 1665l8-6 68 77-8 7zm-2715 576l57-56 56 56-56 57zm57-41l-42 41 42 42 41-42zm139 171l-2 23-10-1 1-13-18-1 1-18h-18l1-19h-13l1-10 23 1-1 18 18 1-1 18 18 1zM1203 3901a40 40 0 1 1-41-39 40 40 0 0 1 41 39zm-69 2a30 30 0 1 0 29-31 30 30 0 0 0-29 31zm3369-2469a40 40 0 1 1 55 12 40 40 0 0 1-55-12zm58-37a30 30 0 1 0-8 41 30 30 0 0 0 8-41zm137 196l59-54 54 58-58 55zm58-39l-43 40 40 43 43-40zm-229 2456l51-61 27 75zm48-44l-32 38 49 8zm-69-178l32 1v14l-18-1v25l-25-1v25l-25-1v18h-13v-31h24v-25l25 1v-25zm-2405-358l10-7 73 100-10 7z"/><path d="M2088 3507l100-72 7 9-100 73zm149 260l9-125 103 70zm21-100l-5 77 69-34zm-174 179l-69-59 60-69 69 60zm-52-61l51 44 43-50-50-44zm207-198a46 46 0 1 1 56-31 46 46 0 0 1-56 31zm22-76a34 34 0 1 0 23 42 34 34 0 0 0-23-42zM3903 880l17 17-7 7-10-9-13 14-13-13-13 14-14-13-9 10-7-7 16-18 13 13 13-14 14 13 13-14zm-1154 955l29-99 9 3-28 99z"/><path d="M2728 1789l3-9 98 28-2 10zm-14-421l15-6 57 155-15 6z"/><path d="M2669 1463l155-57 6 15-155 57zM4774 198l-60 119-72-112zm-62 89l38-73-82 5zm-244-74a54 54 0 1 1 32 69 54 54 0 0 1-32-69zm88 32a40 40 0 1 0-51 24 40 40 0 0 0 51-24zM3074 3091l-57-69 70-57 56 70zm-40-68l42 51 51-41-42-51zm-48-130l-9-30 13-4 5 17 24-7 6 24 24-8 7 24 17-6 4 13-30 10-7-24-24 8-7-24-23 7zm1922-396l-4 80-67-44zm-12 64l3-49-44 22zM2152 1482l5-9 93 47-4 9z"/><path d="M2174 1545l47-93 9 4-48 94zm136-182v-104h104v104zm13-91v77h77v-77zm95 2874a46 46 0 1 1-33-56 46 46 0 0 1 33 56zm-78-19a34 34 0 1 0 42-25 34 34 0 0 0-42 25zm-319 661l-19-13 6-8 10 7 10-14 14 10 10-15 14 10 7-10 8 5-12 19-15-11-9 15-15-10-9 15zM1863 0h-12l-6 38-46-38h-17l70 59 11-59zm-87 4995l6 5h17l-1-1 57-21-4 22h12l6-39-93 34zm2541-3626l-19 31-13-8 11-17-25-14 14-25-25-13 15-25-18-10 8-13 31 18-14 24 25 14-15 24 25 14zM1548 2619l-18 78-78-18 18-78zm-26 66l13-58-57-13-13 57zm-109 144a46 46 0 1 1-34-56 46 46 0 0 1 34 56zm-77-20a34 34 0 1 0 41-24 34 34 0 0 0-41 24zm-57-253l4-128 13 1-4 128z"/><path d="M1224 2496v-13l128 5v13zm-45 134l32 30-13 14-18-17-23 25-24-24-23 26-24-24-17 18-14-12 30-33 24 24 23-25 24 23 23-25zm2470 551l23 76-76 24-24-77zm10 69l-17-56-57 17 18 57zm108 25a40 40 0 1 1 5-56 40 40 0 0 1-5 56zm-45-53a30 30 0 1 0 42 4 30 30 0 0 0-42-4zm44-169l6-8 87 59-6 8z"/><path d="m3773 3121 59-87 8 6-58 87zM1817 2201l-140 3 68-123Zm-114-13 87-2-45-74ZM4384 4754l102-14 1 10-102 14z"/><path d="M4423 4702l10-1 14 102-10 1zm-159 230l61-51 52 61-61 52zm60-36l-45 38 38 45 45-38zM4553 0h-10l-4 10-7-10h-10l19 27 12-27zm-58 4962l27 38h10l-21-31 49-4-17 35h10l21-45-79 7zM3838 20l-3-18-24 3-1-5h-18l2 25 44-5zm-64 4955l-4-35-34 5-2-25-18 1 4 44 34-4 3 34 34-4 1 9h18l-2-30-34 5zM321 3925a68 68 0 1 1-17-95 68 68 0 0 1 17 95zm-97-68a50 50 0 1 0 70-13 50 50 0 0 0-70 13zm492 148H559l79-136zm-127-17h97l-48-84zm-239-313l26-24 10 11-14 13 20 20-20 19 20 19-20 20 14 13-10 11-26-24 20-20-20-19 20-19-20-20zm4186-2539l69-57 58 68-69 58zm68-40l-51 42 42 50 51-42zm198 1655l65-80 8 6-65 80z"/><path d="M4795 2685l6-7 80 64-6 8zm-643-245a40 40 0 1 1 56 7 40 40 0 0 1-56-7zm56-42a30 30 0 1 0-6 41 30 30 0 0 0 6-41zm-117-66l29-74 75 28-29 75zm35-61l-21 55 55 21 21-55zm-2597-73l4-22 9 1-2 13 17 2-3 17 17 3-3 17 13 2-1 9-23-3 3-17-17-3 3-17-17-2zm3457 103a30 30 0 0 1 14-54v-10a40 40 0 0 0 0 80v-11a29 29 0 0 1-14-5zm-4951-1a40 40 0 0 0-9-56 40 40 0 0 0-26-7v10a30 30 0 0 1 20 5 30 30 0 0 1 7 42 30 30 0 0 1-27 12v11a40 40 0 0 0 35-17zm168 90l12-4 36 112-11 4z"/><path d="M169 2457l112-37 4 11-112 37zm4782-666l-40 69-40-69zm-40 52l24-43h-49zM0 2031v14l24 20-24 29v16l39-46-39-33zm4927 43l61 51 12-15v-16l-14 16-45-38 38-45 21 18v-14l-22-19-51 62zM1057 379l-13 18-7-6 7-10-15-10 11-14-15-10 11-14-11-7 5-8 19 13-10 14 14 10-10 14 14 10zM825 152l7-7 73 72-7 8z"/><path d="M825 218l73-73 7 7-73 73zm134 235l11 92-85-36zm-1 76l-7-57-46 35zm3026 807a40 40 0 1 1 42-37 40 40 0 0 1-42 37zm4-69a30 30 0 1 0 28 31 30 30 0 0 0-28-31zm-91-73l-46-94 104 8zm-27-81l28 58 36-53zm-539 1899l13-18 8 5-8 10 15 10-10 14 15 10-10 14 10 7-5 8-19-12 10-14-14-10 10-14-15-10zm132 280l88-64 7 9-89 64z"/><path d="M3474 3223l9-6 64 88-9 7zm1328-341l10 100-100 11-10-100zm-4 89l-8-74-74 8 8 73zm-32-2214a41 41 0 1 1 32-48 41 41 0 0 1-32 48zm-14-70a30 30 0 1 0 36 24 30 30 0 0 0-36-24zm39-32l-11-101 100-10 11 100zm4-89l8 74 73-8-8-73zm-189-52l13 110-101-43zm-1 90l-9-67-54 41zM105 2598l4-10 106 39-4 10z"/><path d="M136 2664l38-106 11 3-39 106zm8-211a48 48 0 1 1-67-12 48 48 0 0 1 67 12zm-69 48a36 36 0 1 0 9-50 36 36 0 0 0-9 50zm166-634l-28-2v-12l17 1v-22l22 1 1-23 22 2 1-17 12 1-1 28-22-1-1 23-22-2-1 23zm39 110a62 62 0 1 1-51 70 62 62 0 0 1 51-70zm17 106a46 46 0 1 0-53-38 46 46 0 0 0 53 38zm-192 90l-65-103 103-65 65 104zm-42-98l47 76 76-48-48-75zm3522 2108l9-16 162 94-9 16z"/><path d="M3615 4298l94-162 15 9-94 162zm376 26l25 16-7 11-14-9-12 20-20-12-11 20-20-12-9 14-11-6 15-26 20 13 12-21 20 13 12-21zm80-58l-91-94 127-32zm-63-86l56 58 23-78zM2174 773h80v80h-80zm69 11h-58v58h58zm-574 3649a40 40 0 1 1 17-54 40 40 0 0 1-17 54zm-32-62a30 30 0 1 0 40 13 30 30 0 0 0-40-13zM228 802l102-10 1 10-102 10z"/><path d="M270 752l10-1 10 102-10 1zm5-243l8-21 9 4-4 11 16 6-6 16 17 6-6 16 12 4-3 9-21-7 6-16-17-6 6-16-17-6zM162 704l46 75-88 3zm29 66l-29-46-25 48zM25 4220l-25-3v12l12 1-6 62-6-1v12l16 1 9-84zm4919 65l6-61 50 5v-12l-60-6-8 85 68 7v-12l-56-6zm-799-643l20-101 10 2-20 101z"/><path d="M4109 3588l2-10 101 20-2 10zm359 69l5 37-15 2-3-21-29 5-5-29-29 5-4-29-21 4-2-16 37-6 4 29 29-5 4 29 29-5zm-125-206a42 42 0 1 1-60-5 42 42 0 0 1 60 5zm-56 48a31 31 0 1 0 3-45 31 31 0 0 0-3 45zm-194-77v-80l69 40zm8-65v49l43-24zm49-55l89-58 6 9-89 58z"/><path d="M4164 3236l9-6 58 89-9 6zm-170-85a52 52 0 1 1 44-59 52 52 0 0 1-44 59zm-13-90a39 39 0 1 0 44 33 39 39 0 0 0-44-33zm-106 111l30-9 4 13-17 5 8 23-23 7 8 24-24 7 6 17-13 4-10-30 24-7-8-23 23-7-8-24zm-2054 358l35-72 45 66zm36-54l-21 44 49-3zm115 151l-56-56 56-57 57 57zm-41-56l41 41 42-41-42-42zm2993-27a40 40 0 1 1-56-7 40 40 0 0 1 56 7zm-54 43a30 30 0 1 0 5-42 30 30 0 0 0-5 42zm-250 23l102 102-139 37zm72 94l-63-63-23 86zM2576 1118l62-82 8 6-62 82z"/><path d="M2566 1052l6-7 83 61-6 8zM554 4087l-3 22-10-1 2-13-17-2 3-17-18-2 3-18-12-1 1-9 22 2-3 18 18 2-3 17 17 2zm-54 221l-29 89-88-29 29-88zm-37 73l21-65-65-21-21 65zm160-240a42 42 0 1 1-59 10 42 42 0 0 1 59-10zm-43 60a31 31 0 1 0-7-44 31 31 0 0 0 7 44zm743-806l2-15 160 19-2 16z"/><path d="M1387 3476l19-160 16 2-19 160zm-175-115l91 16-16 92-92-16zm77 26l-67-11-12 67 67 12zm-15-300l57 56-77 22zm40 51l-35-34-12 48zm3326 1648l9 29-12 4-6-17-22 9-7-23-23 8-7-23-16 6-5-12 29-10 7 22 23-8 7 23 23-8zm72-125a46 46 0 1 1 31 56 46 46 0 0 1-31-56zm76 22a34 34 0 1 0-42 23 34 34 0 0 0 42-23zm-2124-647l83-60 6 8-83 61z"/><path d="M2675 3972l8-6 60 83-8 6zm-207-54l37 11-5 15-20-6-8 29-28-9-8 28-28-8-6 20-15-4 10-36 28 8 8-28 28 9 7-29zm836-157l10-80 79 10-10 80zm19-68l-7 59 58 7 7-59zm-292-54l72 45-75 40zm53 44l-44-27-2 52zm289-132l-55 69-31-82zm-52 50l34-43-53-8zM1321 426l-14 17-7-6 7-10-14-10 11-14-14-10 12-14-11-8 6-7 18 13-11 14 14 11-11 13 14 11zm49-240a40 40 0 1 1 22-52 40 40 0 0 1-22 52zm-27-64a30 30 0 1 0 39 16 30 30 0 0 0-39-16zm-117 212l8 84-84 9-9-84zm-4 74l-6-62-62 7 6 62zm150-108l124-33 3 13-124 33z"/><path d="M1406 230l12-3 33 123-12 4zm-251-6l24 15-6 10-13-8-11 19-19-11-11 19-19-11-8 14-10-6 14-25 19 11 10-19 19 11 11-19zM781 1368a40 40 0 1 1-32 47 40 40 0 0 1 32-47zm13 68a30 30 0 1 0-35-23 30 30 0 0 0 35 23zm223 31l20-1 14 199-20 1z"/><path d="M934 1563l199-14 1 20-199 14zm-167-42l107-28 28 107-107 28zm96-10l-78 21 21 78 78-21zm-198 836l-80-1 41-69zm-65-10l50 1-24-43zm176-145l96 17-17 96-96-17zm81 28l-71-13-12 71 70 12zm123 186l-13 40-17-5 8-23-32-9 10-32-32-9 11-31-23-7 5-17 40 12-10 31 32 9-10 32 31 9zM565 534a40 40 0 1 1 13 55 40 40 0 0 1-13-55zm59 36a30 30 0 1 0-40 10 30 30 0 0 0 40-10zm-36 246v-10l103 4v10z"/><path d="m632 865 3-103h10l-3 103zM427 597l42 79-90-3Zm25 68-26-48-29 47ZM4372 2171l8-7 65 80-8 7z"/><path d="M4365 2235l80-65 7 8-80 65zm184-109l-79-8 47-65zm-63-15l49 5-20-45zM57 17a40 40 0 0 0 55-13 40 40 0 0 0 2-4h-12a30 30 0 0 1-40 9 29 29 0 0 1-9-9H41a40 40 0 0 0 16 17zm41 4932a40 40 0 0 0-57 51h12a30 30 0 1 1 50-2l-1 2h12a40 40 0 0 0-16-51zm22-97l17 15-6 7-10-8-11 13-13-11-11 13-13-11-8 10-8-6 15-18 13 12 11-14 13 12 11-14zM1751 774l107 60-59 108-108-60zm85 67l-79-44-44 79 79 44zm2780 3308l-51-63 79-12zm-34-56l31 38 18-46zM2243 1145l80-5 4 80-79 5zm70 7l-58 3 3 58 58-3zm-169-199l-10 21-9-5 6-11-16-8 8-16-16-7 8-16-12-6 4-8 21 9-8 16 16 8-8 16 16 7zm204 139l74-152 15 7-74 152z"/><path d="M2313 990l8-15 151 74-7 15zm-156 158a64 64 0 1 1-84 35 64 64 0 0 1 84-35zm-42 103a47 47 0 1 0-26-62 48 48 0 0 0 26 62zm-35-205l25 14-5 10-15-8-10 20-20-10-10 20-19-11-8 14-11-5 14-26 19 11 10-20 20 11 10-20zm2099 1610a40 40 0 1 1 24 51 40 40 0 0 1-24-51zm65 24a30 30 0 1 0-38 18 30 30 0 0 0 38-18zm609-1287l-15 98-98-15 15-98zm-26 83l11-72-72-11-11 72zm-110-197l80-23-20 81zm68-10l-50 14 37 36zm-3621-174l5-10 102 48-5 10z"/><path d="M1189 1163l47-103 10 5-47 102zm-264-78l72-130 13 8-71 129z"/><path d="M900 994l8-13 129 72-7 13zm153 321a69 69 0 1 1-5 97 69 69 0 0 1 5-97zm80 89a51 51 0 1 0-72-4 51 51 0 0 0 72 4zm-258-165l95-20 21 95-96 20zm85-5l-70 15 15 70 70-15zm3880 2628l-71 37 4-80zm-62 22l44-22-41-27zm151-96l-21 7-3-9 12-4-7-16 17-6-6-16 16-6-4-12 9-3 8 21-17 6 6 16-16 6 6 16zm-4910-9l133-83 5 156zm117-53l-82 52 85 45zm3611-2384a48 48 0 1 1-23-64 48 48 0 0 1 23 64zm-75-36a36 36 0 1 0 47-17 36 36 0 0 0-47 17zm32 96l15 103-103 15-15-103zm-1 91l-10-75-76 10 11 76zm9-856l11-19 8 5-6 10 15 9-9 15 16 8-9 15 11 6-4 9-20-11 9-15-16-8 9-16-15-8zM666 307l37-157 15 4-36 157z"/><path d="M613 221l3-16 157 37-4 15zm-27 187l103-36-21 107zm87-17l-64 21 51 44zm-289 97a78 78 0 1 1 107 29 79 79 0 0 1-107-29zm118-68a58 58 0 1 0-21 79 58 58 0 0 0 21-79zm2160 1681l-24-77 77-23 23 76zm-11-70l18 57 56-18-17-56zm216-167l7-8 75 70-7 8z"/><path d="M2870 1929l70-75 7 7-70 75zm55 231v-25h10v14h20v19h19l1 19h14v10l-25 1v-19h-20v-19h-19zm-136-265a41 41 0 1 1-54-21 41 41 0 0 1 54 21zm-65 29a30 30 0 1 0 15-40 30 30 0 0 0-15 40zM318 4243l-77-22 58-56zm-59-27l47 14-12-48zm-129 156l-76 23-24-77 77-23zm-69 10l56-17-17-57-56 18zm150-338l9-3 37 96-9 3z"/><path d="M184 4104l97-37 3 9-96 37zm4811 16l-20-10-9 20-19-9-12 25 11 5 6-14 20 9 9-20 19 10v-28l-5 12zM9 4116l14 7 5-11-25-12-3 8v28l9-20zm163 183l10-13 128 104-10 13z"/><path d="M183 4404l104-129 13 10-104 129zM1679 0h-22l-38 40-12-40h-16l20 70 68-70zm-107 4935l19 65h16l-12-44 84 21-22 23h22l30-31-137-34zM808 2703l4 26-11 2-2-15-21 4-3-21-21 4-3-20-15 3-2-12 26-5 3 21 21-4 3 21 21-4zm1598 24l80-2 3 80-80 2zm70 9l-59 2 2 58 59-2zm-251-80a46 46 0 1 1-17 63 46 46 0 0 1 17-63zm41 70a34 34 0 1 0-47-13 34 34 0 0 0 47 13zm6-234l79 12-49 63zm63 18l-49-7 18 46zm-1909-16l14-18 7 6-7 10 14 10-11 14 14 10-11 14 11 8-6 7-18-13 11-14-14-10 10-14-14-10zm24-84l129-12 1 13-129 12z"/><path d="M503 2346l13-1 12 129-13 1zm215 268l-86-10 11-86 85 11zm-73-20l63 8 8-63-63-8zM4093 413a40 40 0 1 1 45 34 40 40 0 0 1-45-34zm69-9a30 30 0 1 0-25 33 30 30 0 0 0 25-33zM287 1383l-21 7-4-9 12-4-6-16 17-6-7-16 17-6-5-12 9-3 8 21-16 5 6 17-17 5 7 17zm102 179a41 41 0 1 1-54-22 41 41 0 0 1 54 22zm-66 28a30 30 0 1 0 16-40 30 30 0 0 0-16 40zm1964 1808l172-12 1 17-172 12z"/><path d="m2359 3315 17-1 12 172-17 1zM424 1031l80-5-35 72Zm66 5-50 3 28 41ZM749 1270l-61-130 131-61 61 130Zm-35-121 44 96 96-45-44-96ZM2793 4839l49-63 63 49-49 63Zm51-48-36 46 46 36 37-46ZM2660 4644l9-6 60 89-9 6z"/><path d="M2647 4712l89-60 6 10-89 59zM2766 10l4 30 31-5 4 30 38-7-3-16-21 4-5-30-30 5-3-21h-47l2 15 30-5zm-16 4986l-3-22-16 3 3 23h47l-1-9-30 5zM2568 32a61 61 0 0 0 40-32h-19a45 45 0 0 1-25 16 46 46 0 0 1-47-16h-19a62 62 0 0 0 70 32zm45 4925a62 62 0 1 0-115 43h19a46 46 0 1 1 72 0h19a61 61 0 0 0 5-43zm72-713l59 59-80 22zm41 55l-36-37-13 50zm-90-100l6-107 90 58zm17-86l-4 66 59-30zm-255 171a63 63 0 1 1 40 79 63 63 0 0 1-40-79zm105 34a47 47 0 1 0-59 30 47 47 0 0 0 59-30zm917-2415l8-6 66 78-8 7z"/><path d="M3414 1968l79-66 6 8-79 66zm-22 269l-23 28-11-10 12-16-22-17 17-21-22-17 18-22-16-12 9-12 28 21-17 22 22 17-18 22 23 17zm239-161l-79-31 30-79 79 30zm-65-37l58 22 23-58-59-22zm-174-66l-82 88-35-115zm-76 62l51-54-72-17zm175 117l103 22-22 103-103-22zm86 32l-76-16-16 76 76 16zm1009 206l8-6 59 85-8 5z"/><path d="M4573 2455l85-60 6 9-85 59zm68 257l-22 5-2-9 12-3-5-17 17-4-5-17 17-4-3-12 9-3 6 22-17 4 5 17-17 4 5 17zm-190-117a42 42 0 1 1 38 44 42 42 0 0 1-38-44zm72 5a31 31 0 1 0-33 29 31 31 0 0 0 33-29zm460 283l17-10v-12l-31 18 31 54v-22l-17-28zM78 2908l-40-69-38 22v12l34-20 30 51-51 30-13-23v22l9 15 69-40zm4891-116a30 30 0 0 1 31-50v-11a40 40 0 1 0 0 77v-11a30 30 0 0 1-31-5zm-4950 4a40 40 0 0 0-4-57 40 40 0 0 0-15-8v11a30 30 0 0 1 8 5 30 30 0 0 1 3 42 29 29 0 0 1-11 8v11a40 40 0 0 0 19-12zm72 123l10-10 94 101-10 10z"/><path d="M87 3007l101-94 9 10-101 94zm3844-461l2 93-82-45zm-9 75l-1-57-49 30zM3254 934l-28-4 2-12 16 3 3-22 21 3 3-22 22 4 2-16 12 1-4 28-21-3-3 22-22-3-3 21zm125-96l88-31-18 91zm74-15l-54 19 43 37zm-1273 941l-83-114 114-83 83 114zm-57-110l61 83 84-60-61-84zm-65-308l22 26-11 9-13-15-20 19-17-21-20 18-18-21-14 13-10-11 26-23 17 21 20-18 18 21 20-18zm1630 1337l2-10 100 27-2 10z"/><path d="M3721 2740l26-100 10 2-27 100zm-3 43a41 41 0 1 1-37 45 41 41 0 0 1 37-45zm7 71a30 30 0 1 0-33-27 30 30 0 0 0 33 27zm127-1378a40 40 0 1 1 57-5 40 40 0 0 1-57 5zm45-53a30 30 0 1 0 4 42 30 30 0 0 0-4-42zm101 231l-28 13-6-12 16-7-11-22 22-11-11-22 22-10-8-16 12-6 14 28-22 11 11 21-22 11 11 22zm-653 2183l-1 80-69-42zm-10 64l1-49-43 24zm-226-11l26-104 104 26-26 104zm36-87l-19 77 76 19 19-77zm1666-1475l2-124h12l-2 124z"/><path d="M4756 2272v-12l124 2v12zm-173 113l-84-21 21-84 84 21zm-70-29l62 15 15-61-62-16zm140-176l-40-4 2-17 22 2 3-32 32 4 2-32 32 3 1-23 17 1-3 41-31-3-3 32-31-4-3 32zM2222 4147a62 62 0 1 1-84-24 62 62 0 0 1 84 24zm-94 52a46 46 0 1 0 18-62 46 46 0 0 0-18 62zm-184 31l7-12 117 73-7 12z"/><path d="M1964 4316l73-118 12 8-73 117zm593-3664l-76 26 15-78zm-64 13l46-16-37-32zm-110-193l41 6-2 18-24-4-3 33-32-5-4 33-32-5-3 24-17-2 4-42 33 5 3-33 32 5 4-33zm185 318l-36 125-90-94zm-42 97l22-77-78 19zM912 3710l8-6 64 81-8 6z"/><path d="M905 3776l81-64 6 8-81 63zm-4 48a51 51 0 1 1-69-22 51 51 0 0 1 69 22zm-78 41a38 38 0 1 0 15-51 38 38 0 0 0-15 51zm85-381l127 39-39 127-127-39zm105 51l-93-29-29 94 93 28zm271 599a51 51 0 1 1 22 69 51 51 0 0 1-22-69zm79 42a38 38 0 1 0-51 15 38 38 0 0 0 51-15zm-310-82l118-12 12 118-118 12zm104 5l-87 9 9 87 87-9zm3661-2963l-104 51 8-115zm-89 30l64-32-59-39zM38 879l18 12 9-14-33-21-15 26-17-10v19l23 14 15-26zm4953-13l-15 27-26-16-20 33 14 9 11-20 26 17 16-27 3 2v-19l-9-6zm-234 11l10-5 51 101-10 4z"/><path d="M4735 945l100-51 5 10-100 51zm-872 2861a40 40 0 1 1-19 54 40 40 0 0 1 19-54zm30 63a30 30 0 1 0-39-14 30 30 0 0 0 39 14zm123 201l-68-41 70-39zm-50-41l42 26 1-50zm214-201l14-24 10 6-8 14 19 10-11 18 19 10-11 19 14 7-5 10-25-13 11-18-19-10 11-19-19-10zm-282-176l127-18 18 127-127 18zm113 1l-93 13 13 93 93-13zm52 357l7-14 145 70-7 15z"/><path d="m4097 4108 70-145 15 7-71 145zM155 1531l44-67 36 71Zm43-49-27 41 49 3ZM4984 1731l-6 14 22 9v-16l-16-7zM124 1791 0 1738v16l118 51 6-14z"/><path d="M15 1835l60-141 13 6-59 141zm291 813a63 63 0 1 1 61-65 63 63 0 0 1-61 65zm-4-110a47 47 0 1 0 48 45 47 47 0 0 0-48-45zm0 340l22-85 85 21-21 86zm30-71l-16 63 63 15 16-62zm1488-805l-23 11-5-10 13-6-9-18 19-8-10-18 19-8-7-13 10-5 11 23-18 8 9 18-18 9 9 17zm1594 2948l40 50h13l-45-56-8 6z"/><path d="M3487 4951l-61 49h16l51-41-6-8zm-1-4927l-19-24h-13l25 31 7-7zm-73 0l29-24h-16l-19 16 6 8zm-55 254a66 66 0 1 1 52-78 66 66 0 0 1-52 78zm-22-114a49 49 0 1 0 57 39 49 49 0 0 0-57-39zm-216 4811l4 25h12l-3-16 63-11 5 27h11l-7-40-85 15zM3220 45l-8-45h-11l6 36-63 11-8-47h-12l11 60 85-15zM1190 4l-2 30 30 1-2 21 16 1 3-38-30-1 1-18h-46v3l30 1zm17 4985l-30-2 2-29-38-2v16l21 1-2 27h46l1-11zm-207-17l-52-69 86-11zm-35-62l32 43 21-50zM4035 516a40 40 0 1 1-7 56 40 40 0 0 1 7-56zm43 55a30 30 0 1 0-42-5 30 30 0 0 0 42 5zm-147 68l-64 47-47-65 64-47zm-62 32l48-35-35-47-48 34zm68 82l11-29 12 5-6 16 22 7-8 23 23 7-8 23 16 5-4 12-29-9 8-23-22-7 8-22-23-8zm118-87l90-9-37 81zm74 2l-55 6 32 45zM1525 4675l9-10 101 97-10 10z"/><path d="M1527 4764l97-100 10 9-97 101zm272 66l-94-5 51-79zm-76-15l59 3-27-52zM3075 483l-10-38 16-4 6 21 29-9 8 30 30-9 8 30 21-7 5 16-38 12-8-30-29 9-8-30-30 9zm32 307l81-68 6 8-81 68z"/><path d="M3113 724l8-7 67 81-8 6zm-54-84a42 42 0 1 1 0-60 42 42 0 0 1 0 60zm-52-52a31 31 0 1 0 44 0 31 31 0 0 0-44 0zm1544 990l-59 53-54-59 60-54zm-59 38l44-39-39-44-44 39zm-378-50l5-19 195 52-5 20z"/><path d="M4178 1678l52-195 20 5-53 195zm184-219l79-32 31 79-78 31zm72-17l-57 23 23 58 58-24zM1472 3900l2 22-9 1-1-13-18 2-1-17-18 2-1-17-13 1-1-9 22-3 2 17 17-2 2 18 17-2zm-7 103l-72 75-29-100zm-66 53l44-47-62-15zm242 66a41 41 0 1 1-21-54 41 41 0 0 1 21 54zm-65-29a30 30 0 1 0 40-16 30 30 0 0 0-40 16zm2694-1035l-27 89-63-68zm-31 69l16-55-55 13zm187-246l72-55 55 73-73 55zm70-38l-53 41 40 53 53-40zm-110 293l14-21 8 6-7 12 16 10-11 16 17 10-11 16 12 8-6 8-21-13 11-16-16-10 10-16-16-10zm-571-748a40 40 0 1 1-54 18 40 40 0 0 1 54-18zm-32 62a30 30 0 1 0-13-40 30 30 0 0 0 13 40zm-100-399l15-5 46 143-14 5z"/><path d="M3640 2135l143-46 5 14-143 47zm18 275l40-103 10 3-40 104z"/><path d="M3628 2345l4-10 104 40-4 10zm298 22l17-34 15 7-10 20 27 12-13 27 27 13-14 27 20 9-7 15-35-16 14-27-27-13 13-27-27-13zM2586 4691l-27 75-76-28 28-75zm-34 61l20-55-55-20-20 55zm-88 44l64 51-76 29zm46 48l-39-31-8 49zm-157-153a69 69 0 1 1-59-76 69 69 0 0 1 59 76zm-118-14a51 51 0 1 0 56-45 51 51 0 0 0-56 45zM1052 3348l59-84 8 5-59 85z"/><path d="M1040 3283l6-8 84 59-6 8zm-128-230l89 20-63 67zm69 26l-55-12 17 53zm154 103l-29-10 4-13 16 6 8-23 22 8 8-23 22 7 6-16 12 4-9 29-23-8-7 23-23-7-7 23zM2833 997l-76 24-24-77 77-23zm-69 11l56-18-17-56-57 17zm135 146a40 40 0 1 1 36-44 40 40 0 0 1-36 44zm-7-69a30 30 0 1 0 32 26 30 30 0 0 0-32-26zm698-735l-85 98-43-123zm-80 70l53-61-79-15zm-71 307l-23-3 2-10 13 2 2-18 18 3 2-18 18 3 2-13 10 1-3 23-18-3-3 18-18-3-2 18zm-85-230l72 90-89 72-73-89zm51 88l-53-66-66 53 53 66zm671 2027l9-4 41 95-10 4z"/><path d="M4052 2673l95-40 4 9-95 41zm63 305a49 49 0 1 1 61-34 49 49 0 0 1-61 34zm24-82a36 36 0 1 0 24 45 36 36 0 0 0-24-45zm-102-156l-69 91-44-105zm-66 66l42-56-69-8zm276 9a42 42 0 1 1-38 45 42 42 0 0 1 38-45zm6 72a31 31 0 1 0-33-28 31 31 0 0 0 33 28zM416 124l74 30-30 75-74-30zm61 36l-55-22-22 55 55 22zm-112-35l-4 22-9-2 2-12-17-3 3-17-17-3 3-17-12-2 1-9 22 3-3 17 17 3-3 17 17 3zm181 8l56-101 9 5-55 101z"/><path d="M526 62l5-10 101 56-6 10zm2013 3273l80 3-3 80-80-3zm69 13l-59-2-2 59 59 2zm-27-191l-12-108 100 44zm3-89l7 67 54-40zm276 105a43 43 0 1 1-57-20 43 43 0 0 1 57 20zm-67 33a32 32 0 1 0 15-43 32 32 0 0 0-15 43zm18 81l18-5 52 171-17 6z"/><path d="M2757 3388l171-53 6 18-171 52zm-78 13l11-21 9 5-6 12 16 8-9 16 16 8-9 16 12 6-4 9-21-11 9-16-17-8 9-16-16-8zm1529 1192a40 40 0 1 1-56 6 40 40 0 0 1 56-6zm-44 54a30 30 0 1 0-4-41 30 30 0 0 0 4 41zm301-15l-9 28-12-4 5-16-22-6 7-22-22-7 7-22-16-4 4-12 28 8-7 22 22 6-7 22 22 7zM145 4778l72-35-6 80zm62-21l-44 22 41 28zm272 1l22 77-76 22-23-77zm9 70l-16-57-56 16 16 57zm-157 34l11-2 20 113-11 2z"/><path d="m289 4922 113-20 2 11-113 20zM236 3251l102-10 1 10-102 10z"/><path d="M277 3201l10-1 10 102-10 1zm147 66l8-26 11 3-4 15 20 5-6 21 21 5-6 20 15 4-2 11-27-6 6-21-21-5 6-21-21-5zm2574-1768l-53 60-25-76zm-49 43l33-37-49-10zm149 221a40 40 0 1 1 56 7 40 40 0 0 1-56-7zm55-43a30 30 0 1 0-5 42 30 30 0 0 0 5-42zm45-11l11-103 103 11-11 103zm23-88l-8 76 76 8 8-76zm-332 117l144-77 7 14-144 77z"/><path d="M2919 1638l14-7 76 144-14 7zm-1802 551a50 50 0 1 1-18 68 50 50 0 0 1 18-68zm43 75a37 37 0 1 0-50-13 37 37 0 0 0 50 13zm74 68l54-84 45 89zm53-62l-33 52 61 3zm136-145l-30 3-1-13 17-1-3-24 23-2-3-24 23-2-2-17 12-2 4 30-23 3 3 23-23 2 3 24zm1458 1870l-99-12 13-98 98 12zm-84-23l72 9 9-73-72-8zm192-56l-108-53 52-108 108 53zm-87-60l79 38 39-79-79-39zm-247-30a53 53 0 1 1-64 37 53 53 0 0 1 64-37zm-23 89a39 39 0 1 0-28-48 39 39 0 0 0 28 48zm228-241l6-165 16 1-6 165z"/><path d="M2788 3596v-16l165 6-1 16zm1471-1776l-37-3 1-16 21 2 2-29 29 2 1-29 29 3 2-21h15l-2 38-29-3-1 29-29-2-2 29zm-27 277l55 101-115-2zm34 88l-35-62-37 61zm59-159l104 2-2 104-104-2zm90 15l-77-1-1 76 77 2zM1355 4624a40 40 0 1 1-30-48 40 40 0 0 1 30 48zm-68-15a30 30 0 1 0 35-22 30 30 0 0 0-35 22zm10-186l-76 64-18-98zm-69 43l47-39-58-21zm306 21l36-25 11 15-20 14 21 28-29 20 21 28-28 20 15 20-15 11-27-35 28-20-20-28 28-20-21-28zm-186-175l10-10 94 101-10 10z"/><path d="m1344 4400 101-94 9 10-101 94zM4098 155l91-48 4 8-91 49z"/><path d="M4117 92l9-4 49 90-9 5zm248 64a62 62 0 1 1 87-6 62 62 0 0 1-87 6zm71-81a46 46 0 1 0 4 65 46 46 0 0 0-4-65zm-281 4925h12l26-46 27 46h13l-41-67-37 67zm87-4984l-9-16h-13l4 6-61 1 4-7h-12l-10 18 97-2zM1435 438l18 13-5 8-10-8-10 15-14-9-10 14-14-9-7 10-8-5 12-19 15 10 9-15 14 10 10-15zm53 261l67 43-43 67-68-43zm52 46l-49-32-32 50 49 32zm-209-59l29-3 1 12-16 2 2 22-22 2 3 22-23 2 2 16-12 2-3-29 22-2-3-22 23-2-3-22zm24-192l-8 94-94-8 8-94zm-20 81l6-69-69-6-6 69zm273-28l16-4 43 169-17 4z"/><path d="M1550 642l170-42 4 17-169 42zm2180 2684a58 58 0 1 1-81-6 58 58 0 0 1 81 6zm-76 66a43 43 0 1 0 5-60 43 43 0 0 0-5 60zm-2 316v-109l94 54zm12-88v67l58-34zm-229-74l-107-94 93-107 107 93zm-81-95l79 68 69-79-79-68zm-583-927l5-9 90 50-5 9z"/><path d="M2789 2586l50-90 9 5-50 90zm174-78l-9-32 13-3 5 18 25-8 6 25 25-8 7 25 17-5 4 13-31 9-7-24-24 7-7-25-24 8zm-16-157l91-94 37 126zm84-66l-56 58 79 20zm1943-1062a30 30 0 0 1 12-40 29 29 0 0 1 14-4v-10a40 40 0 0 0 0 80v-11a30 30 0 0 1-26-15zM20 1244a40 40 0 0 0 15-55 40 40 0 0 0-35-20v10a30 30 0 0 1 26 15 30 30 0 0 1-11 41 29 29 0 0 1-15 3v11a40 40 0 0 0 20-5zm155 104a57 57 0 1 1-75-29 57 57 0 0 1 75 29zm-91 40a42 42 0 1 0 22-56 42 42 0 0 0-22 56zm221-162l-28-1v-12l16 1v-23l23 1v-22h22v-16h12v29l-22-1v23l-23-1v22zm1259 2574l63-48 49 64-64 48zm61-33l-47 35 36 47 47-35zm132-48l9-3 30 99-9 3z"/><path d="M1729 3759l98-30 3 10-98 30zm-124-151l-78-17 53-60zm-62-23l49 11-15-47zm4 107l-124 90-16-152zm-110 59l77-55-87-39zm1935-851l12-21 9 5-7 11 17 9-9 16 16 9-9 16 12 6-4 9-22-11 9-16-16-9 9-16-17-8zm-105-133a49 49 0 1 1 42-56 49 49 0 0 1-42 56zm-12-85a36 36 0 1 0 41 31 36 36 0 0 0-41-31zm865-1723l-78-18 18-78 78 18zm-65-26l57 13 13-57-57-14zm-968 450l10-3 30 99-10 3z"/><path d="M3048 1428l98-30 3 10-98 30zm-48-208l-17-19 8-7 9 11 15-13 12 14 14-13 13 15 10-10 7 8-18 17-12-15-15 13-12-14-14 13zm209-76h13l4 130h-13z"/><path d="M3152 1205l130-4v13l-130 4zM522 3046l-58-54 76-24zm-41-50l36 33 11-48zm47 92l79 14-14 79-79-14zm67 23l-58-10-10 58 58 10zm150 5a58 58 0 1 1-50 64 58 58 0 0 1 50-64zm12 100a43 43 0 1 0-47-37 43 43 0 0 0 47 37zm-168-373l21 23-10 9-11-13-18 17-16-18-17 17-17-18-12 12-9-10 22-21 16 18 18-17 16 18 17-17zm206 257l-11-100 92 41zm2-82l7 61 50-36zM80 3374l53 78-79 53-52-78zm35 75l-39-58-57 39 39 58zm76-184a45 45 0 1 1 3-63 45 45 0 0 1-3 63zm-53-57a33 33 0 1 0 47 2 33 33 0 0 0-47-2zM3617 911l7-7 77 67-6 8z"/><path d="M3622 976l67-77 8 6-68 78zm-46 269a60 60 0 1 1 49-70 60 60 0 0 1-49 70zm-18-103a44 44 0 1 0 52 36 45 45 0 0 0-52-36zm106 61l102-54 5 9-102 54z"/><path d="M3686 1132l9-5 54 102-9 5zm-223-9l-74-128 127-73 74 127zm-47-121l54 94 93-54-54-94zm363 64l-31-10 5-13 17 6 7-25 24 8 7-24 24 8 5-18 13 4-9 31-24-8-7 25-24-8-7 24zM2573 2929l26 76-78-16zm13 64l-16-47-32 37zm-141 72l-26 4-1-11 15-2-4-21 21-2-3-21 20-2-2-15 11-2 4 26-20 3 3 20-21 3 3 20zM60 4677l-60 8v14l37-5-30 71-7-10v23l11 14 49-115zm4901 26l39-4v-14l-64 8 64 85v-23l-39-52zm-221-228l152-124 12 15-152 124z"/><path d="M4753 4351l15-12 123 152-15 12zM1569 1195a40 40 0 1 1-53-19 40 40 0 0 1 53 19zm-63 29a30 30 0 1 0 15-39 30 30 0 0 0-15 39zm81-224l61-52 52 60-60 53zm60-37l-45 38 39 45 44-39zm-327 152l71 38-68 42zm53 38l-43-23 1 49zm309-74l8 86-86 7-8-86zm-5 75l-5-63-63 6 5 63zm-359-169l80-158 16 8-81 157z"/><path d="M1283 877l8-15 158 80-8 15zm1103 871a40 40 0 1 1-34-45 40 40 0 0 1 34 45zm-69-9a30 30 0 1 0 33-26 30 30 0 0 0-33 26zm42-235l32-17 7 14-18 9 14 25-26 13 14 26-25 13 10 18-14 7-18-32 26-13-14-25 26-13-14-25zm291 19l-96 77-77-96 96-77zm-93 54l70-57-57-70-70 57zm-606 2276l-17 36-15-7 10-21-29-12 14-28-29-13 14-28-21-9 7-16 37 17-14 28 29 12-14 28 28 13zm-215 235l117-52 5 12-117 52z"/><path d="M1766 4012l12-5 52 117-12 5zm254-1906a40 40 0 1 1 4 57 40 40 0 0 1-4-57zm53 46a30 30 0 1 0-42 3 30 30 0 0 0 42-3zm-162-103l28-85 60 66zm32-66l-17 53 54-12zm340 109l-63 72-73-63 63-72zm-65 54l47-53-54-46-46 53zm-1018-364l65-92 47 101zm63-67l-40 56 69 6zm20 219l6-30 13 3-4 17 24 4-5 24 24 4-5 23 17 4-2 12-30-5 5-24-24-4 5-24-24-4zm2379 2062a68 68 0 1 1-96-7 68 68 0 0 1 96 7zm-90 78a50 50 0 1 0 5-72 50 50 0 0 0-5 72zm-413 119l172-84 8 17-172 84z"/><path d="M3198 4078l17-8 84 172-17 8zm216-164l79-40-5 87zm68-24l-48 25 45 29zm-815-1492l11-8 85 113-11 9z"/><path d="M2654 2488l113-86 9 12-114 85zm-52 342l-28 10-4-12 15-6-8-21 22-8-9-22 22-7-7-16 12-5 11 28-22 8 9 21-22 8 9 22zm-134-286a55 55 0 1 1 78 5 55 55 0 0 1-78-5zm73-63a41 41 0 1 0-4 57 41 41 0 0 0 4-57zm159 264l60-65 65 60-60 65zm61-48l-44 47 47 44 44-47zM828 3425l-123 100-25-157zm-111 67l76-61-91-35zm-317 76l-76-71 71-76 76 71zm-57-72l56 52 52-55-56-53zm234-155a64 64 0 1 1 91 4 64 64 0 0 1-91-4zm83-75a47 47 0 1 0-3 67 48 48 0 0 0 3-67zM1797 398l-21-10 5-9 11 6 7-16 16 8 7-16 16 7 5-11 9 4-9 20-16-8-7 16-16-7-7 16zm34 104l2-10 102 15-2 9z"/><path d="M1872 556l14-102 10 1-15 102zm194-24l52-111 71 100zm54-84l-32 69 76-7zm-188-233l-59 101-101-58 59-101zm-64 80l43-74-75-43-43 74zm292 4532a46 46 0 1 1-34 57 46 46 0 0 1 34-57zm20 79a34 34 0 1 0-42-25 34 34 0 0 0 42 25zM4310 687l-19-24 10-9 11 14 19-15 15 19 19-16 15 19 14-11 8 10-24 20-15-19-19 16-15-20-19 16zm209 77l153-72 7 16-153 71z"/><path d="M4556 661l15-7 72 153-16 7zM1744 2636l-70-116 136-3zm-44-102l43 72 41-73zm-293-86l4-18 175 41-4 17z"/><path d="M1467 2545l40-175 18 4-41 175zm392-135a40 40 0 1 1-53-19 40 40 0 0 1 53 19zm-62 30a30 30 0 1 0 14-39 30 30 0 0 0-14 39zm173 60l-12 21-9-5 7-12-17-8 9-17-17-9 9-16-12-6 5-9 21 11-9 16 17 9-9 16 17 9zm101-70l-87-55 55-87 87 55zm-68-59l64 40 40-64-64-40zm-46 525l-4-22 9-1 3 12 17-4 3 17 17-4 3 18 13-3 2 9-22 5-3-17-17 4-4-18-17 4zm186-22l109-88 22 139zm98-59l-67 54 81 32zm-296-9h-95v-95h95zm-82-13h69v-69h-69zm-197-1288a40 40 0 1 1-48-30 40 40 0 0 1 48 30zm-68 16a30 30 0 1 0 22-36 30 30 0 0 0-22 36zm-289 130l75-108 11 8-76 108z"/><path d="M1293 1569l8-11 108 76-7 10zm178 64l1-12 118 9-1 12z"/><path d="M1525 1687l8-118 12 1-8 118zm-48-432l34 78-78 33-34-78zm19 72l-25-57-57 24 24 57zm363 322l66-44 6 79zm58-28l-41 27 45 22zm-19-241a41 41 0 1 1-55 17 41 41 0 0 1 55-17zm-33 63a30 30 0 1 0-12-41 30 30 0 0 0 12 41zm-195 173l20-28 12 8-11 16 23 14-15 23 23 14-15 22 16 11-8 12-29-18 15-23-23-14 15-22-23-15zm3097 1468l102-12 1 10-102 12z"/><path d="M4807 3033l10-1 12 102-10 1zM53 3330a40 40 0 1 0-53-46v18a41 41 0 0 0 2 5 40 40 0 0 0 51 23zm-25-65a30 30 0 1 1-17 39 30 30 0 0 1 17-39zm4972 37v-18a40 40 0 0 0 0 18zm-242-163l97 84-84 97-97-84zm73 86l-71-62-62 71 71 62zm102-172l-27-6 2-11 15 3 4-21 21 4 3-21 21 4 2-15 12 2-4 27-22-5-3 22-21-4-3 21zM1764 4473l-51 73-38-81zm-49 54l31-46-55-5zm97-161l2 26-11 1-1-15-21 3-2-21-20 3-2-21-15 2-1-11 26-4 2 21 20-2 2 20 21-2zm191 51l19-5 59 193-19 6z"/><path d="M1943 4531l193-59 6 19-194 59zm-1258 86l-78-20 56-57zm-61-25l48 12-13-47zm205 19a46 46 0 1 1 5 66 46 46 0 0 1-5-66zm61 53a34 34 0 1 0-49 4 34 34 0 0 0 49-4zm-65-176l48-63 64 48-48 64zm50-49l-35 47 47 36 35-47zm-122 249l-7 25-11-2 4-15-20-5 5-20-20-4 5-20-14-4 2-10 26 6-5 20 20 4-6 20 21 5zm65-266l-79 30 13-84zm-67 16l49-19-41-33zm74 407l14-2 20 136-14 2z"/><path d="M773 4915l136-20 2 14-136 20zm232-690l-79 73-73-79 79-73zm-78 53l58-54-54-58-58 54zM494 1343a56 56 0 1 1-78 14 56 56 0 0 1 78-14zm-56 80a42 42 0 1 0-10-58 42 42 0 0 0 10 58zm1906 1737l2 142-142 2-2-142zm-17 123l-2-104-104 2 2 104zM3601 498l134-8v13l-134 7z"/><path d="M3658 434h12l8 134h-13zM2644 3632l-39 18-7-16 21-10-15-30 30-15-16-29 30-15-11-21 15-8 20 37-30 15 16 29-30 15 16 30zM815 670l-33 108-77-82Zm-39 83 20-66-67 16ZM718 1634a78 78 0 1 1-101 43 78 78 0 0 1 101-43Zm-51 125a58 58 0 1 0-31-75 58 58 0 0 0 31 75ZM538 4525l-32-122 122-32 32 122Zm-12-110 24 90 90-24-24-90ZM1918 3048l7 124-112-56Zm-8 101-4-77-65 42ZM4802 2032l6-9 91 71-7 9z"/><path d="M4811 2105l70-91 9 7-71 91zm-983 1396a54 54 0 1 1-72 26 54 54 0 0 1 72-26zm-40 85a40 40 0 1 0-19-53 40 40 0 0 0 19 53zm-314 684l20 39-16 9-12-22-29 17-17-30-29 17-17-30-21 12-9-16 38-22 16 30 30-17 16 31 30-18zm871 518l20 16-6 9-12-9-12 16-15-12-12 16-16-13-8 12-9-6 15-21 16 12 11-16 16 12 12-16zM118 3961l-20 94-72-64zm-27 74l12-58-56 18zM4172 889l-53-91 91-53 53 91zm-34-86l39 67 67-39-39-67zM501 860a64 64 0 1 1-53-73 64 64 0 0 1 53 73zm-110-17a47 47 0 1 0 54-40 47 47 0 0 0-54 40zm696 3638l15-7 67 144-14 7z"/><path d="M1053 4575l144-67 7 14-144 68zm757-3332l-69 43-43-69 69-43zm-66 28l51-31-31-51-51 31zm86 1625l12-3 32 119-12 3z"/><path d="m1801 2974 121-32 3 12-121 32zM130 530l35 11-4 14-20-6-7 28-28-8-7 28-28-9-5 20-15-4 9-35 28 8 7-28 28 9 7-28zM4790 1943a60 60 0 1 1 25-81 60 60 0 0 1-25 81Zm-49-92a44 44 0 1 0 60 18 45 45 0 0 0-60-18ZM2404 3705l-12-112 102 46Zm2-92 8 69 56-41ZM1437 54l107 7-7 107-107-7Zm92 20-79-5-5 79 79 5ZM4817 4931l-6-120 106 55Zm8-98 4 74 62-40ZM3098 3528a58 58 0 1 1 69-45 58 58 0 0 1-69 45Zm21-99a43 43 0 1 0 33 51 43 43 0 0 0-33-51ZM1479 419l4-11 112 41-4 11z"/><path d="M1511 488l41-112 11 4-41 112zM44 349l17-25 10 7-9 14 20 13-13 20 20 12-13 20 14 9-7 11-25-16 13-20-20-12 13-20-20-13zm2846 4306a59 59 0 1 1 6 84 59 59 0 0 1-6-84zm78 68a44 44 0 1 0-62 4 44 44 0 0 0 62-4zm1577-1923l-15-17 7-7 9 10 13-12 12 14 13-12 12 14 10-9 7 7-18 16-12-14-13 12-12-14-13 12zm453 752l2 13v-13h-2zm-37 63l39-6v-10l-41 6 2 10zM24 3652L8 3550l-8 2v13l14 89 10-2z"/><path d="m61 3589-61 10v10l63-10-2-10zM3365 1241l34 74-82-8Zm19 64-20-46-30 40ZM3642 4587l110-74 74 110-110 74Zm105-50-81 55 55 81 81-55ZM2866 770l25-31 13 11-14 17 25 19-20 25 25 18-19 25 17 13-10 14-32-24 20-25-25-18 20-25-25-19zM1247 3743a72 72 0 1 1-21 99 72 72 0 0 1 21-99Zm68 105a53 53 0 1 0-74-16 53 53 0 0 0 74 16ZM212 1705l-15-94 90 34Zm-1-78 9 59 46-38ZM3221 2382l70 48-48 70-70-48Zm54 51-51-35-35 51 51 35ZM4569 4194l7-9 98 73-7 9z"/><path d="M4582 4285l74-97 9 7-73 97zM518 2118l16-38 16 7-9 21 30 12-12 30 30 11-13 30 22 9-6 16-39-15 13-30-30-11 12-30-30-12zM226 4689l-78-71 100-33zm-55-66l48 43 14-63zm984-255l-111 81-81-111 111-81zm-107 56l82-60-60-82-82 60zm3300-276a74 74 0 1 1-91 53 74 74 0 0 1 91-53zm-33 125a55 55 0 1 0-39-67 55 55 0 0 0 39 67zM966 127l11-4 39 112-11 4z"/><path d="M933 195l112-39 4 11-112 39zM553 4580l29 148-142-49zm7 123l-17-91-71 61zm634 107l-57-91 91-57 57 91zm-37-87l42 67 66-41-41-67zm1784-501v-11l107 4v11z"/><path d="M2976 4250l3-107 11 1-3 107zM1597 1358l2-33 14 1-1 18 25 1-1 26h26l-2 26h19v14l-33-1 1-25-26-1 2-26h-26zm519 1181a58 58 0 1 1-81 15 58 58 0 0 1 81-15zm-57 84a43 43 0 1 0-12-60 43 43 0 0 0 12 60zM460 1960l-31-103 103-31 31 103zm-13-93l23 75 75-23-23-75zM3275 394a46 46 0 1 1 58 32 46 46 0 0 1-58-32zm78-22a34 34 0 1 0-24 42 34 34 0 0 0 24-42zm804-153l10-13 123 100-10 13z"/><path d="M4167 318l100-123 13 10-100 123zm-320 1505l-5 26-11-2 3-14-21-3 4-21-21-3 4-20-15-2 2-11 26 4-4 20 21 3-4 20 21 3zM1230 739l-86 17 28-84zm-72 4l54-11-36-41zm753 1466l8-105h10l-8 105z"/><path d="M1868 2158v-10l105 8v10zm540 2386l132-67-8 148zm114-40l-81 42 77 50zm1017-32l-8-110 110-8 8 110zm8-97l5 81 81-5-5-81zM1611 873l-3 29-12-1 2-17-23-1 2-23-22-2 2-22-16-2v-12l30 2-3 23 23 2-2 22 22 2zm2543 986a52 52 0 1 1-29-67 52 52 0 0 1 29 67zm-84-33a39 39 0 1 0 50-22 39 39 0 0 0-50 22zM3032 4992l-96-32 76-66zm-74-37l59 21-12-61zM484 2607l22-9 4 9-13 5 8 17-18 7 8 17-17 7 5 12-9 4-10-21 18-7-8-17 17-7-7-17zm1550 847a46 46 0 1 1-43-49 46 46 0 0 1 43 49zm-80-5a34 34 0 1 0 36-32 34 34 0 0 0-36 32zm260-473l13-12 126 135-13 12z"/><path d="m2210 3095 135-126 12 13-135 126zM142 1058l-78 58-58-78 78-58Zm-75 40 57-43-43-57-57 43ZM4746 342l154 16-91 126Zm123 30-95-10 39 88ZM935 4718l171-3v17l-171 3z"/><path d="M1011 4640h17l3 171h-17zm47-998l19-105 105 19-19 105zm30-89l-14 78 78 14 14-78zm971-348l-13-20 8-5 8 11 15-11 10 16 14-11 10 15 11-7 6 8-19 13-10-15-15 10-10-15-15 11zm710-194a55 55 0 1 1 15 77 55 55 0 0 1-15-77zm80 54a41 41 0 1 0-57 11 41 41 0 0 0 57-11zm-1315 230l-91-91 91-91 91 91zm-66-91l66 66 66-66-66-66zm1140-1410l-8-27 12-4 4 16 22-6 5 21 22-6 6 21 15-4 4 11-28 9-6-22-21 6-6-21-21 6zM3810 538l96-149 14 9-96 149z"/><path d="m3803 434 10-14 148 96-9 14zM1012 2048a72 72 0 1 1 77 67 72 72 0 0 1-77-67Zm125-9a53 53 0 1 0-49 57 53 53 0 0 0 49-57ZM1045 610l78-47 2 92Zm69-29-49 29 50 27ZM3511 2744l-65 55-15-84Zm-59 37 40-34-49-17ZM1841 4688l-25-30 13-10 14 16 22-20 20 23 22-20 20 23 16-14 11 12-29 26-19-23-23 20-19-23-23 20zM3136 2632l66-81 8 6-66 82z"/><path d="M3129 2566l7-8 81 66-6 8zM605 1878l91-3 3 91-91 3zm79 9l-67 3 3 67 67-3zm300 1427a48 48 0 1 1-25-63 48 48 0 0 1 25 63zm-77-33a36 36 0 1 0 47-19 36 36 0 0 0-47 19zm657-454l-38-9 3-16 22 5 6-30 29 7 6-30 30 7 4-22 16 3-7 39-30-7-6 30-29-7-6 30zm-789-40l14-7 65 152-15 7z"/><path d="m735 2884 152-65 7 15-152 64zM3997 3366l72 68-68 72-72-68Zm53 68-53-49-49 53 53 49ZM3171 349l-2-96 84 47Zm9-78 1 59 51-30ZM755 4024a59 59 0 1 1-34 76 59 59 0 0 1 34-76Zm37 96a44 44 0 1 0-57-25 44 44 0 0 0 57 25ZM3413 2585l171-88 9 17-171 87z"/><path d="M3451 2468l17-9 87 171-16 9zm90 2358a68 68 0 1 1 96 12 68 68 0 0 1-96-12zm94-73a50 50 0 1 0-9 71 50 50 0 0 0 9-71zM41 195l-14-11-15 19-12-10v24l15 12 26-34zm4945-14l-20 27-26-22-21 27-19-16-11 14 33 28 20-27 26 22 21-27 11 10v-24l-14-12zM715 2112l50-90 90 50-50 90zm55-71l-36 66 66 36 36-66zm1753-48l-116 14 46-108zm-95-2l71-9-43-57zm1780 1742l-9 24-10-4 5-13-18-7 7-18-19-7 7-18-13-5 3-10 24 9-7 18 19 6-7 19 18 6zM1388 4923l112-39 4 11-112 39z"/><path d="m1421 4855 11-4 39 112-11 4zM2283 838l67 47-47 67-67-47Zm52 50-49-35-35 49 49 35ZM1902 659a40 40 0 1 1 48 30 40 40 0 0 1-48-30Zm68-16a30 30 0 1 0-22 36 30 30 0 0 0 22-36ZM3831 4520l-42-118 122 22Zm-21-100 26 72 50-59ZM834 840a56 56 0 1 1 65 45 56 56 0 0 1-65-45Zm96-17a42 42 0 1 0-34 48 42 42 0 0 0 34-48ZM425 4062l-10 23-10-5 6-13-18-7 8-18-19-7 8-18-13-6 4-10 23 10-8 18 19 7-8 18 18 8zM292 2344l76-126 72 128Zm76-94-47 78 91 2ZM2663 878l20-157 16 2-20 157z"/><path d="m2602 799 2-16 157 20-2 16zM3572 1859l70-44 44 70-70 44Zm67-29-52 32 32 52 52-32ZM733 985l3 32-13 1-2-18-25 3-2-24-24 3-3-25-18 2-1-13 32-4 2 25 24-3 3 24 24-3zM798 594a42 42 0 1 1 41-43 42 42 0 0 1-41 43Zm-2-73a31 31 0 1 0 32 30 31 31 0 0 0-32-30ZM2593 1264l90 71-106 43Zm65 67-56-43-10 70ZM601 1279l125 9-9 125-125-9Zm107 24-92-6-6 92 92 6ZM290 199l10-7 68 99-10 7z"/><path d="m276 274 99-68 7 10-99 68zM3245 3253l-36 12-5-15 20-7-10-28 28-9-11-28 28-9-8-20 15-6 14 35-28 10 10 27-27 10 10 28zM4346 1075l110-89 22 140Zm99-60-68 55 82 32ZM1279 1508l28-115 12 3-28 115z"/><path d="M1240 1444l3-12 115 28-3 12zm2943-297a46 46 0 1 1-28 60 46 46 0 0 1 28-60zm28 76a34 34 0 1 0-44-20 34 34 0 0 0 44 20zM3016 897h148v148h-148zm129 19h-110v110h110zM1405 4729l9-21 9 4-5 12 16 6-7 16 17 6-7 16 12 5-4 9-21-8 7-16-16-7 7-16-17-6zm-296-3716l28-115 12 3-28 115z"/><path d="M1070 949l3-12 115 28-3 12zm826 1668a42 42 0 1 1 41 43 42 42 0 0 1-41-43zm73 2a31 31 0 1 0-32 30 31 31 0 0 0 32-30zm84-2478l-96 27 24-96zm-80 11l58-17-44-42zm1117 3758l87 129-129 87-87-129zm58 123l-64-94-94 64 64 94zm878 656l17-6 63 173-17 7z"/><path d="M3976 4796l173-63 7 17-174 63zM1621 345a50 50 0 1 1 21-69 50 50 0 0 1-21 69zm-42-78a37 37 0 1 0 51 15 37 37 0 0 0-51-15zm186 3607l36 13-5 15-21-7-8 29-29-10-9 29-28-10-7 21-15-5 11-37 29 10 8-29 29 10 9-29zm2723-697l90 56-56 90-90-56zm70 61l-65-41-41 65 65 41zM3788 188l-89 131-69-142zm-86 96l55-81-98-7zm665 2238a43 43 0 1 1 60-14 43 43 0 0 1-60 14zm40-64a32 32 0 1 0 10 44 32 32 0 0 0-10-44zm178-856l109 101-101 109-109-101zm81 102l-80-74-74 80 80 74zm158 753l-96-3 51-81zm-77-13l59 2-28-52zm-252 1938l8-13 132 82-8 13z"/><path d="m4517 4477 83-131 12 8-82 131zM2220 311l-15 29-12-7 9-16-23-11 12-22-23-11 12-23-16-8 6-12 29 14-12 23 23 11-12 22 22 11zM252 3577a45 45 0 1 1-20-60 45 45 0 0 1 20 60Zm-70-35a33 33 0 1 0 45-15 33 33 0 0 0-45 15ZM2047 1753l27-13 6 11-16 7 11 21-21 10 10 21-21 9 8 15-11 6-14-26 21-10-10-21 21-10-11-20zM3071 4453l12-5 57 123-12 6z"/><path d="M3041 4534l124-57 5 12-123 57zm1339-437l-101-95 95-101 101 95zm-75-95l75 69 69-75-75-69zm-65-1419l-86-13 55-67zm-68-20l53 8-19-49zM2376 12l-2-12h-16l2 14 16-2zm-99 4920l164-18 1 16-164 18z"/><path d="m2342 4850 16 150h16l-16-152-16 2zM4590 1324l-18-23 10-8 10 14 18-15 14 18 17-14 14 18 13-10 8 9-23 19-14-18-18 14-13-18-18 14zM4321 477l17-111 111 17-17 111Zm30-94-13 81 81 13 13-81ZM2976 1426l-128-59 116-81Zm-97-62 79 37-8-87ZM4365 4475a58 58 0 1 1-78-24 58 58 0 0 1 78 24Zm-89 47a43 43 0 1 0 18-58 43 43 0 0 0-18 58ZM2924 2677l-5 26-11-2 3-15-21-3 4-21-21-3 4-21-15-2 2-11 26 4-4 21 21 3-4 21 21 3zM706 1l-1-1h-22l9 12 14-11zM568 4984l141-110 11 14-141 110z"/><path d="M582 4871l101 129h22l-109-140-14 11zm2990-1155a66 66 0 1 1-69-63 66 66 0 0 1 69 63zm-115 6a49 49 0 1 0 46-52 49 49 0 0 0-46 52zM284 3025l147-23-54 138zm121-3l-91 15 58 71zm2685-1205l-10 102-102-10 10-102zm-23 87l8-74-74-8-8 74zm-981 2071l-17-17 7-8 10 10 14-13 13 13 13-13 14 13 10-10 7 8-17 17-14-13-13 13-13-13-14 13zm2015-2914l-89 54-1-104zm-78 34l56-33-57-31zm-2062-72l-95 95-95-95 95-95zm-95 70l70-70-70-70-70 70zm966-825a76 76 0 1 1-34-103 76 76 0 0 1 34 103zm-118-61a56 56 0 1 0 76-24 56 56 0 0 0-76 24zm625 1535l166-78 7 17-166 77z"/><path d="M3379 1631l16-7 78 166-17 7zm-1064 293l-11 37-15-4 6-21-30-8 8-29-29-8 8-29-21-5 4-16 38 9-9 30 30 7-8 29 29 8zm520 2441l8-13 131 79-8 13z"/><path d="m2859 4460 79-132 13 8-79 131zM4747 2549l88 38-38 88-88-38Zm71 44-65-27-27 65 65 27ZM3302 1452l-92-39 80-61Zm-70-42 57 24-8-62ZM866 2523a58 58 0 1 1-23 79 58 58 0 0 1 23-79Zm49 89a43 43 0 1 0-59-17 43 43 0 0 0 59 17ZM4248 4387l-134 54 20-142Zm-114 29 82-33-70-55ZM2496 2319l-3-43 18-1 2 24 34-4 2 34 33-3 3 33 24-2 2 18-43 4-2-33-34 3-2-33-34 3zM2629 559l186-40 4 19-186 40z"/><path d="m2695 457 19-4 40 186-19 4zM4419 1917a67 67 0 1 1 85-43 67 67 0 0 1-85 43Zm36-111a50 50 0 1 0 32 62 50 50 0 0 0-32-62ZM2665 2283l5-147 147 5-5 147Zm24-127-4 108 108 4 4-108ZM1609 1790h17l4 173h-17z"/><path d="M1533 1870l173-4v17l-173 3zm1538 108a56 56 0 1 1-56 56 56 56 0 0 1 56-56zm0 98a42 42 0 1 0-42-42 42 42 0 0 0 42 42zm-299 2516l-147-13 13-147 147 13zm-126-31l108 10 10-108-108-10zM1173 2462l-22 28-12-10 13-15-22-17 17-21-22-17 17-22-16-12 9-12 29 22-18 21 22 17-17 21 22 17zm2534 482l-112 88-20-141zm-100 58l69-54-82-33zm323-2828l54-98 98 54-54 98zm60-78l-40 72 72 40 40-72zM1868 1149l130-14-53 120zm107 3l-81 9 48 65zM364 1033l-8 33-14-3 5-19-27-6 7-26-27-6 7-26-19-4 3-14 34 7-7 26 26 6-6 26 26 6zm837 1849l8-9 90 87-8 9z"/><path d="M1202 2962l87-91 9 9-87 90zm2087 1613a70 70 0 1 1 92 34 70 70 0 0 1-92-34zm110-51a52 52 0 1 0-25 69 52 52 0 0 0 25-69zm325-2972a59 59 0 1 1-42 72 59 59 0 0 1 42-72zm26 99a44 44 0 1 0-53-31 44 44 0 0 0 53 31zm-358-147l-28-19 8-12 16 11 14-23 22 15 14-23 22 15 10-16 12 8-18 29-22-15-14 22-22-15-14 23zm468 2453l-92 70-70-92 92-70zm-89 48l67-51-51-67-67 51zM577 3630l15-5 50 146-14 5z"/><path d="M535 3717l146-50 5 14-147 51zm1225-213l-105 71-9-126zm-93 46l65-44-70-34zm2318-1497l35-16 7 15-20 9 14 27-28 13 14 26-27 13 9 20-14 7-18-34 28-13-14-27 27-13-13-27zm703 1511a62 62 0 1 1 85-25 62 62 0 0 1-85 25zm52-95a46 46 0 1 0 18 62 46 46 0 0 0-18-62zm238-1980l-69 120-69-120zm-69 89l42-73h-85zm-2758 789l124-9v12l-124 9z"/><path d="M2203 2307l12-1 8 124-12 1zM1058 3859l-32-98 98-32 32 98zm-14-89l23 71 71-23-23-71zm3578-2193l-50-116 126 15zm-27-99l30 71 47-62zm32 2361l18-31 13 8-10 17 24 14-14 24 24 14-14 24 17 10-7 13-31-18 14-24-24-13 14-24-24-14zm-2460-260a67 67 0 1 1-93 21 67 67 0 0 1 93-21zm-62 99a50 50 0 1 0-16-68 50 50 0 0 0 16 68zM3792 847l-51-89 89-51 51 89zm-32-84l37 65 65-37-37-65zm-1004 771h19l6 196h-19z"/><path d="m2671 1625 196-6v19l-196 6zM4541 400l-23-29 12-9 13 16 22-19 18 22 21-19 19 23 15-14 10 12-27 24-19-22-21 19-18-23-22 19zM3169 3011l61-188 18 6-61 188z"/><path d="M3112 2899l6-18 188 61-6 18zM0 2370v41a50 50 0 0 1 0 9v40a67 67 0 0 0 8-11 67 67 0 0 0-8-79zm4993 70a49 49 0 1 1 7-29v-41a66 66 0 1 0 0 90v-40a49 49 0 0 1-7 20zm-2771-995l-42-86 86-42 42 86zm-25-80l31 63 63-31-31-63zM4755 57l-7-57h-15l4 34-73-31 4-3h-24l-9 7 120 50zm-111 4943h24l60-45 5 45h15l-9-71-95 71zm-2146-811l-41-69 80-1zm-26-60l26 42 24-43zm-988-5l11-4 39 112-11 4z"/><path d="M1426 4180l112-39 4 11-112 39zM1992 0h-30a78 78 0 0 0 30 0zm58 4895a78 78 0 1 0-88 105h30a78 78 0 0 0 58-105zm-127 49a58 58 0 1 1 75 33 58 58 0 0 1-75-33zm2192-3531l-70-84 84-70 70 84zm-49-82l51 61 61-51-51-61zM1379 2687l-18 37-16-7 10-21-30-13 14-30-30-12 14-30-22-9 7-16 38 16-13 29 30 13-14 30 30 13zm2305 383l12-1 8 123-12 1z"/><path d="m3632 3129 123-8 1 12-123 8zM1696 2227l74 76-76 74-74-76Zm54 76-54-56-56 54 54 56ZM1112 3425l21 12-5 9-12-7-10 16-16-10-9 17-16-10-7 11-9-5 12-21 16 10 10-16 16 10 9-16zM4401 4831l94 64-102 50Zm69 62-58-39-5 70ZM3619 47a56 56 0 0 0 34-47h-15a42 42 0 0 1-25 33 42 42 0 0 1-54-22 41 41 0 0 1-3-11h-15a56 56 0 0 0 4 17 56 56 0 0 0 74 30ZM3649 4973a56 56 0 0 0-108 27h15a42 42 0 0 1 79-21 41 41 0 0 1 3 21h15a56 56 0 0 0-4-27ZM388 3939l111-141 14 11-110 141z"/><path d="M375 3826l11-15 141 111-11 14zM4630 955l33 21-9 13-18-11-15 26-26-16-15 26-26-16-11 19-14-8 20-34 25 16 15-26 26 16 15-26zm283 1956l-107-35 35-107 107 35zm-88-45l78 26 26-78-78-26zm-578-504a71 71 0 1 1 100 0 71 71 0 0 1-100 0zm87-87a53 53 0 1 0 0 74 53 53 0 0 0 0-74zm-2885-32l64 74-96 18zm44 67l-40-46-20 57zm-1367-99l121 67-67 121-121-67zm96 74l-89-49-49 89 89 49zM16 1866l-16 35v34l28-63-12-6z"/><path d="M61 1957l-61-28v16l55 24 6-12zm4909 45l30-67v-34l-42 95 12 6z"/><path d="M4931 1899l-6 12 75 34v-16l-69-30zM930 323l26 34-14 11-15-19-25 21-20-26-26 21-20-26-18 16-12-14 33-27 20 26 25-21 21 26 25-22zm2871 915l108 2-56 94zm87 14l-67-1 33 59zm-465 1936a62 62 0 1 1 83-31 62 62 0 0 1-83 31zm46-99a46 46 0 1 0 22 62 46 46 0 0 0-22-62zm1101 11l-12-138 126 58zm6-113l7 85 70-49zm72-2357l107-49 5 11-107 49z"/><path d="M4674 560l10-5 50 107-11 5zm295 2028l31-24v-19l-50 41 50 62v-22l-31-38zM98 2602l-66-82-32 25v19l30-25 49 61-61 49-18-23v22l16 20 82-66zm39-660l-3-26 11-2 2 15 21-3 2 21 21-3 3 21 15-3 1 11-26 5-3-21-21 3-2-21-21 3zm3772 2216a71 71 0 1 1-101 9 71 71 0 0 1 101-9zm-80 95a53 53 0 1 0-6-74 53 53 0 0 0 6 74zM2094 679l4-13 136 41-4 13z"/><path d="M2137 759l41-136 13 4-41 136zm-534 3597l-82-84 84-82 82 84zm-60-84l60 62 62-60-60-62zM333 659l-103 65-5-122zm-91 41l64-40-66-35zm4597 3583a44 44 0 1 1 59-19 44 44 0 0 1-59 19zm35-68a33 33 0 1 0 14 44 33 33 0 0 0-14-44zm-614-595l-23-7 3-10 13 4 5-18 18 6 6-18 18 6 3-13 10 2-7 24-18-6-5 18-18-6-5 18zm-303-388l7-17 166 67-7 17z"/><path d="M4002 3337l67-166 17 7-67 166zm-2113 327a51 51 0 1 1 8-72 51 51 0 0 1-8 72zm-55-70a38 38 0 1 0 53 7 38 38 0 0 0-53-7zm3043 60l-55 75-75-55 55-75zm-57 58l40-56-56-40-40 56zM2706 1114l-6-35 14-2 4 19 27-5 5 27 27-6 5 27 19-4 3 15-34 7-5-27-27 6-5-28-27 6zM403 4139l108 46-94 70zm82 49l-66-28 9 71zm822-879l-27 22-9-11 15-13-18-20 21-18-18-20 22-18-13-14 11-10 23 26-21 18 18 20-22 17 18 21zm3359 1265l8 120-108-53zm-7 98l-5-74-61 41zm-2094-634a43 43 0 1 1 60-10 43 43 0 0 1-60 10zm43-61a32 32 0 1 0 8 44 32 32 0 0 0-8-44zm586-230l26-163 16 2-26 163z"/><path d="m3133 3662 2-16 163 26-2 16zM1295 186l69 99-99 69-69-99Zm46 95-50-72-72 50 50 72ZM862 1475l98-98 10 10-98 98z"/><path d="m862 1387 10-10 98 98-10 10zM719 2438a62 62 0 1 1 84-26 62 62 0 0 1-84 26Zm51-96a46 46 0 1 0 19 63 46 46 0 0 0-19-63ZM607 702l3 36-16 1-1-20-28 3-2-29-29 3-2-28-20 2-2-15 37-4 2 28 28-3 2 29 28-3zM4491 2252l4-90 76 48Zm13-72-2 55 49-26ZM227 4893l7 85-85 7-7-85Zm-5 74-6-62-62 6 6 62ZM1099 3928l-46 142-142-46 46-142Zm-59 117 34-104-104-34-34 104ZM1890 909l5-150 127 80Zm20-121-3 93 82-44ZM4718 4099l-34-14 6-14 19 8 10-27 27 11 10-26 26 11 7-19 15 5-13 34-27-11-10 27-26-11-10 26zM2217 982a67 67 0 1 1-67 67 67 67 0 0 1 67-67Zm0 117a50 50 0 1 0-50-50 50 50 0 0 0 50 50ZM4279 2790l135-121 12 13-135 122z"/><path d="M4285 2674l14-12 121 135-13 12zm557-1360l106-59-2 122zm92-36l-65 37 64 38zm-3876-48l-41 3-2-18 24-1-4-33 33-2-3-32 32-3-2-23 17-2 5 42-33 2 3 32-32 3 3 32zM6 3880a67 67 0 0 0-6-11v78a67 67 0 0 0 6-67zm4911-33a67 67 0 1 0 83 100v-78a67 67 0 0 0-83-22zm49 106a50 50 0 1 1 24-66 50 50 0 0 1-24 66zM3484 1362l147-45 4 14-146 45z"/><path d="M3530 1275l14-4 45 146-14 5zm64-602l124 66-66 124-124-66zm99 74l-91-49-49 91 91 49zM516 293l1-31 13 1-1 17h24l-1 23h24l-1 24h17v13h-30v-24h-23l1-23h-24zm2329 1644l107 107-107 107-107-107zm79 107l-79-79-79 79 79 79zM183 4247a72 72 0 1 1-7-101 72 72 0 0 1 7 101zm-94-82a53 53 0 1 0 75-5 53 53 0 0 0-75 5zm1450 669l6-8 81 63-6 8z"/><path d="m1547 4898 63-81 8 6-63 81zM693 2733l-73 60-15-94Zm-66 40 45-37-54-20ZM2333 2585l113 11-11 113-113-11Zm97 25-83-9-9 83 83 9ZM598 2559a43 43 0 1 1-14-60 43 43 0 0 1 14 60Zm-64-40a32 32 0 1 0 44-10 32 32 0 0 0-44 10ZM4156 608l21-152 121 95Zm34-121-13 94 88-35ZM261 1444l6-8 84 59-5 8z"/><path d="m273 1508 59-84 8 5-59 85zM2433 3261l-30-31 13-12 17 17 23-24 23 24 23-24 23 24 17-17 13 12-30 31-23-24-23 24-23-24-23 24zM489 1133l11-17 171 107-11 17z"/><path d="M518 1258l107-171 17 11-107 171zm2226 3534a76 76 0 1 1-108 0 76 76 0 0 1 108 0zm-94 94a56 56 0 1 0 0-80 56 56 0 0 0 0 80zm-103-690l87 3-3 87-87-3zm75 14l-64-2-2 64 64 2zm907-2083l-108-33 83-77zm-84-39l67 21-16-68zm1170 434l26-10 4 12-15 5 8 20-21 8 8 20-21 8 6 14-11 5-10-27 21-7-8-21 21-7-8-20zM201 2835a72 72 0 1 1-16-100 72 72 0 0 1 16 100zm-101-73a53 53 0 1 0 74-12 53 53 0 0 0-74 12zm3569-264l14-7 77 140-14 8z"/><path d="m3670 2590 141-78 8 14-141 78zM3269 809l53-81 45 87Zm52-60-33 51 61 3ZM1943 1484l154-22 22 154-154 22Zm137 2-113 16 15 112 113-15ZM3578 2771l-15-23 10-7 9 14 18-13 11 18 18-12 12 18 13-9 7 10-23 16-12-19-18 13-12-18-18 12zM4033 1409l29 106-106-29Zm12 89-18-65-47 47ZM3208 3939a48 48 0 1 1-13 67 48 48 0 0 1 13-67Zm47 70a36 36 0 1 0-50-10 36 36 0 0 0 50 10ZM4723 2309l1 32h-13l-1-18-24 2-1-25-24 1-1-24-17 1-1-13 31-2 1 24 24-1 1 25 24-2zM1999 4190l-73-105 105-73 73 105Zm-49-101 53 77 77-53-53-77ZM2307 759l145-106 10 15-145 105z"/><path d="m2325 645 14-10 106 145-15 10zM754 3761l98-151 15 10-97 150z"/><path d="M731 3649l9-16 151 98-10 15zm562 352a62 62 0 1 1-85-23 62 62 0 0 1 85 23zm-94 54a46 46 0 1 0 17-63 46 46 0 0 0-17 63zm3658-2964l-22-122 116 42zm-4-101l13 75 58-49zm-815 2839l41-8 3 17-23 4 7 32-32 6 7 32-32 7 6 22-18 4-9-40 32-7-7-31 32-7-7-31zM179 1578l-62 112-112-62 62-112zm-69 89l46-82-82-46-46 82zm148 1046l74-46 46 74-74 46zm70-30l-54 34 34 54 54-34zm1702 354l74-64 18 96zm66-44l-45 40 57 20zm-265-1257a78 78 0 1 1-34 106 78 78 0 0 1 34-106zm62 122a58 58 0 1 0-78-26 58 58 0 0 0 78 26zM3356 25l21 28-12 9-12-15-21 17-17-22-21 17-16-22-16 13-9-12 27-22 17 22 21-17 17 22 21-18zM1097 4932l4-124h12l-4 124z"/><path d="M1043 4874v-12l124 4v12zM4011 696l-78-34 34-78 78 34Zm-63-39 57 24 25-57-57-25ZM1751 4706l-83-59 92-43Zm-61-57 52 36 5-62ZM3091 642l1-12 117 12-1 12z"/><path d="M3138 700l12-117 12 1-12 117zm1222 879l15-21 8 6-8 12 16 11-11 17 16 11-12 16 12 8-6 9-21-14 12-17-17-11 12-16-16-11zM1530 4026a58 58 0 1 1 79-25 58 58 0 0 1-79 25zm47-90a43 43 0 1 0 18 58 43 43 0 0 0-18-58zm2769-1052l123 99-99 123-123-99zm94 102l-91-73-73 91 91 73zm-620-794a74 74 0 1 1-77 71 74 74 0 0 1 77-71zm-5 129a55 55 0 1 0-53-57 55 55 0 0 0 53 57zM2372 4755l97-35 4 9-97 35z"/><path d="m2400 4696 9-4 36 97-10 4zM1041 3229l-19 15-7-8 11-9-12-14 15-12-12-14 15-12-9-10 8-7 15 19-15 11 12 15-15 12 13 14zM2860 952l92 7-52 77Zm74 16-57-4 25 51ZM3519 499a69 69 0 1 1-74 64 69 69 0 0 1 74-64Zm-9 120a51 51 0 1 0-47-55 51 51 0 0 0 47 55ZM4088 2782l98-50-6 110Zm85-30-61 31 57 37ZM440 4991v9h12v-10l-12 1zM460 113 452 0h-12l8 114 12-1z"/><path d="m388 50 123-8 1 12-123 8zM2695 3315l-34 22-9-15 19-12-18-26 27-17-19-26 27-17-13-19 14-10 23 33-27 18 19 26-27 17 18 26zM4355 4623l-9 99-99-9 9-99Zm-21 84 6-72-72-6-6 72ZM329 4722a58 58 0 1 1-66 48 58 58 0 0 1 66-48Zm-16 99a43 43 0 1 0-35-49 43 43 0 0 0 35 49ZM414 3364l-73 69-69-73 73-69Zm-73 50 54-50-50-54-54 50ZM3170 1617l-140 40 35-142Zm-118 17 87-25-65-63ZM1192 2101l8-15 153 81-8 15z"/><path d="m1225 2206 81-153 15 8-81 153zM2758 3727l28-35 14 11-15 20 28 20-21 28 28 20-22 28 21 14-11 15-36-26 21-27-28-21 21-27-28-20zM4269 2006l-25 36-15-10 14-20-28-19 19-28-28-18 19-28-20-14 10-15 36 24-19 27 28 19-19 28 28 18zM1325 4502a51 51 0 1 1 54 48 51 51 0 0 1-54-48Zm89-5a38 38 0 1 0-36 40 38 38 0 0 0 36-40ZM4219 131l70-89 8 7-69 89z"/><path d="m4210 60 7-9 89 70-7 8zM1552 610l-107 97-97-107 107-97Zm-106 70 79-71-71-79-79 71ZM3532 3581l45-130 91 104Zm51-100-28 80 84-16ZM2847 2488l30-154 15 3-30 154z"/><path d="m2792 2406 3-15 154 30-3 15zM240 1174l-63 119-119-63 63-119Zm-71 95 47-87-87-47-47 87ZM1713 3656a60 60 0 1 1-77-35 60 60 0 0 1 77 35Zm-98 36a44 44 0 1 0 27-57 45 45 0 0 0-27 57ZM3317 2785l86-23-23 86Zm72-9-53 14 39 39ZM4167 979l2-35 15 1-1 19 27 1-2 28 27 1-2 27 20 1v14l-35-1 2-27-28-1 2-27-27-1zM3078 1316a46 46 0 1 1 61 23 46 46 0 0 1-61-23Zm73-33a34 34 0 1 0-17 45 34 34 0 0 0 17-45ZM559 3005l203-10 1 20-203 10z"/><path d="M646 2909l20-1 10 203-20 1zm-522 495l15-95 95 15-15 95zm26-80l-11 69 69 11 11-69zm3532-2242l-9 26-11-3 5-15-21-6 7-20-20-6 6-21-15-4 3-11 27 7-7 21 21 6-7 20 21 6zM2497 2943l-91-50 90-54zm-68-51l57 31-1-64zM66 4530a78 78 0 0 0-66-62v20a58 58 0 0 1 46 46 58 58 0 0 1-45 67l-1 1v20l5-1a78 78 0 0 0 61-91zm4868 26a58 58 0 0 1 66-68v-20a78 78 0 1 0 0 154v-20a58 58 0 0 1-66-46zM1415 1141l-5-155 155-5 5 155zm16-135l4 114 114-4-4-114zm994 662l142-54-24 150zm121-28l-88 34 73 59zm-663 2314l17-16 7 7-10 9 13 13-13 13 13 13-14 13 10 9-7 7-17-16 13-13-13-13 14-13-13-13zm147-1920l132-62 6 12-132 62z"/><path d="M2062 1946l12-6 62 132-12 6zm-645-182l38 2-1 15-21-1-1 29-29-1v29l-29-2-1 21h-16l1-37 29 1 1-29 29 2v-29zm2070 2310l-124 68 3-140zm-108 42l76-42-74-45zm-658-1413l-155-13 13-155 155 13zm-133-32l114 10 10-114-114-10zM537 3521a67 67 0 1 1 84-44 67 67 0 0 1-84 44zm35-112a50 50 0 1 0 33 63 50 50 0 0 0-33-63zM1877 386l189-44 5 19-189 44z"/><path d="M1943 281l19-5 44 189-19 5zm298-247V0h-11v23h-60V0h-11v34h82zm-82 4918v48h11v-37h60v37h11v-48h-82zM4391 768a75 75 0 1 1-17 105 75 75 0 0 1 17-105zm77 106a56 56 0 1 0-78-12 56 56 0 0 0 78 12zM1612 2459l105-9 1 10-105 9z"/><path d="M1641 2404l10-1 10 104-10 1zm237-89l86 28-67 60zm66 32l-52-17 11 54zm63 412l3-34 14 2-2 19 27 2-3 26 27 2-3 27 19 1-1 15-34-3 3-26-27-2 3-27-26-2zm-558-1332l34-27 11 14-19 15 22 26-26 22 22 25-26 22 16 18-14 12-28-33 26-21-22-26 26-21-22-26zm306 100a58 58 0 1 1 50 64 58 58 0 0 1-50-64zm99 12a43 43 0 1 0-47 37 43 43 0 0 0 47-37zM0 3228v15l8 1-8-16zm4868 13l132 2v-15l-60-108zm27-15l45-74 42 76zM1797 4439l9-12 118 89-9 12z"/><path d="m1810 4533 89-118 12 9-89 118zM702 4514l96-40 40 96-96 40Zm88-22-70 30 30 70 70-30Z"/></svg>